<svg xmlns="http://www.w3.org/2000/svg" version="1.1" xmlns:xlink="http://www.w3.org/1999/xlink" xmlns:svgjs="http://svgjs.dev/svgjs" width="1000" height="1000" viewBox="0 0 1000 1000"><rect width="1000" height="1000" fill="#292222"></rect><g transform="matrix(0.7,0,0,0.7,149.57575768160302,415.59255948356656)"><svg viewBox="0 0 396 96" data-background-color="#292222" preserveAspectRatio="xMidYMid meet" height="242" width="1000" xmlns="http://www.w3.org/2000/svg" xmlns:xlink="http://www.w3.org/1999/xlink"><g id="tight-bounds" transform="matrix(1,0,0,1,0.2400000598782981,-0.16579426295004396)"><svg viewBox="0 0 395.52 96.33158948386145" height="96.33158948386145" width="395.52"><g><svg viewBox="0 0 395.52 96.33158948386145" height="96.33158948386145" width="395.52"><g><svg viewBox="0 0 395.52 96.33158948386145" height="96.33158948386145" width="395.52"><g id="textblocktransform"><svg viewBox="0 0 395.52 96.33158948386145" height="96.33158948386145" width="395.52" id="textblock"><g><svg viewBox="0 0 395.52 45.327847619047624" height="45.327847619047624" width="395.52"><g transform="matrix(1,0,0,1,0,0)"><svg width="395.52" viewBox="3.6500000953674316 -35.79999923706055 314.9700012207031 36.099998474121094" height="45.327847619047624" data-palette-color="#636365"><path d="M23.95-19.2L23.95-33.7 29.1-33.7 29.1 0 23.95 0 23.95-14.75 8.8-14.75 8.8 0 3.65 0 3.65-33.7 8.8-33.7 8.8-19.2 23.95-19.2ZM52-11.55L52-25.35 56.9-25.35 56.9 0 52 0 52-4.35Q50 0.3 44.1 0.3L44.1 0.3Q40.35 0.3 38.15-1.93 35.95-4.15 35.95-8.05L35.95-8.05 35.95-25.35 40.9-25.35 40.9-9.25Q40.9-6.65 42.17-5.28 43.45-3.9 45.7-3.9L45.7-3.9Q48.55-3.9 50.27-5.9 52-7.9 52-11.55L52-11.55ZM62.95-25.35L80.6-25.35 80.6-21.85 68.15-4.15 81.25-4.15 81.25 0 62.5 0 62.5-3.75 74.8-21.25 62.95-21.25 62.95-25.35ZM90.34-14.5L102.59-14.5 102.59-15.4Q102.49-18.25 101.04-19.93 99.59-21.6 96.89-21.6L96.89-21.6Q94.39-21.6 92.59-19.78 90.79-17.95 90.34-14.5L90.34-14.5ZM105.74-5.75L105.74-5.75 105.74-1.35Q102.94 0.25 98.34 0.25L98.34 0.25Q92.44 0.25 88.94-3.3 85.44-6.85 85.44-12.6L85.44-12.6Q85.44-18.7 88.64-22.18 91.84-25.65 96.79-25.65L96.79-25.65Q101.64-25.65 104.49-22.63 107.34-19.6 107.34-13.9L107.34-13.9Q107.34-12.35 107.04-10.65L107.04-10.65 90.39-10.65Q90.89-7.35 93.19-5.6 95.49-3.85 98.99-3.85L98.99-3.85Q103.04-3.85 105.74-5.75ZM126.14-35.4L126.14-35.4 126.14-31.1Q124.99-31.6 123.74-31.6L123.74-31.6Q120.09-31.6 120.09-27.25L120.09-27.25 120.09-25.35 125.44-25.35 125.44-21.55 120.09-21.55 120.09 0 115.19 0 115.19-21.55 111.14-21.55 111.14-25.35 115.19-25.35 115.19-27.3Q115.19-31.25 117.32-33.52 119.44-35.8 123.29-35.8L123.29-35.8Q124.69-35.8 126.14-35.4ZM143.14-8.45L143.14-11.3 139.34-11.3Q136.54-11.3 135.11-10.2 133.69-9.1 133.69-7.4L133.69-7.4Q133.69-5.65 134.79-4.65 135.89-3.65 137.99-3.65L137.99-3.65Q140.39-3.65 141.76-4.98 143.14-6.3 143.14-8.45L143.14-8.45ZM130.39-19.3L130.39-19.3 130.39-24.05Q133.34-25.75 138.19-25.75L138.19-25.75Q148.14-25.75 148.14-16.1L148.14-16.1 148.14 0 143.29 0 143.29-3Q141.34 0.2 136.44 0.2L136.44 0.2Q132.84 0.2 130.66-1.88 128.49-3.95 128.49-7.15L128.49-7.15Q128.49-10.8 131.24-12.83 133.99-14.85 138.94-14.85L138.94-14.85 143.14-14.85 143.14-16.3Q143.14-18.9 141.89-20.23 140.64-21.55 137.74-21.55L137.74-21.55Q133.69-21.55 130.39-19.3ZM157.69-21.85L153.44-21.85 153.44-34.05 157.69-34.05 157.69-21.85ZM177.73-24.5L177.73-24.5 177.73-20.05Q175.28-21.5 171.43-21.5L171.43-21.5Q169.68-21.5 168.66-20.7 167.63-19.9 167.63-18.6L167.63-18.6Q167.63-18.25 167.71-17.93 167.78-17.6 167.98-17.28 168.18-16.95 168.36-16.73 168.53-16.5 168.93-16.25 169.33-16 169.56-15.83 169.78-15.65 170.31-15.4 170.83-15.15 171.08-15.03 171.33-14.9 171.96-14.63 172.58-14.35 172.83-14.25L172.83-14.25Q175.78-12.95 177.46-11.33 179.13-9.7 179.13-7L179.13-7Q179.13-3.6 176.73-1.68 174.33 0.25 170.23 0.25L170.23 0.25Q165.73 0.25 162.73-1.25L162.73-1.25 162.73-5.9Q166.23-3.75 169.98-3.75L169.98-3.75Q171.93-3.75 173.01-4.55 174.08-5.35 174.08-6.65L174.08-6.65Q174.08-7.75 173.23-8.63 172.38-9.5 171.51-9.93 170.63-10.35 168.53-11.25L168.53-11.25Q162.58-13.7 162.58-18.45L162.58-18.45Q162.58-21.8 165.08-23.7 167.58-25.6 171.33-25.6L171.33-25.6Q175.43-25.6 177.73-24.5ZM204.73-14.25L204.18-12.55 214.98-12.55 214.43-14.25Q212.53-20.15 211.33-24.03 210.13-27.9 209.88-28.85L209.88-28.85 209.63-29.8Q209.08-27.45 204.73-14.25L204.73-14.25ZM224.53 0L219.03 0 216.38-8.25 202.78-8.25 200.08 0 194.63 0 206.28-33.7 213.03-33.7 224.53 0ZM229.53-25.35L234.43-25.35 234.43-20.9Q236.28-25.6 241.08-25.6L241.08-25.6Q241.78-25.6 242.63-25.45L242.63-25.45 242.63-20.65Q241.58-21.1 240.28-21.1L240.28-21.1Q237.73-21.1 236.08-18.85 234.43-16.6 234.43-13.5L234.43-13.5 234.43 0 229.53 0 229.53-25.35ZM249.97-14.5L262.22-14.5 262.22-15.4Q262.12-18.25 260.67-19.93 259.22-21.6 256.52-21.6L256.52-21.6Q254.02-21.6 252.22-19.78 250.42-17.95 249.97-14.5L249.97-14.5ZM265.37-5.75L265.37-5.75 265.37-1.35Q262.57 0.25 257.97 0.25L257.97 0.25Q252.07 0.25 248.57-3.3 245.07-6.85 245.07-12.6L245.07-12.6Q245.07-18.7 248.27-22.18 251.47-25.65 256.42-25.65L256.42-25.65Q261.27-25.65 264.12-22.63 266.97-19.6 266.97-13.9L266.97-13.9Q266.97-12.35 266.67-10.65L266.67-10.65 250.02-10.65Q250.52-7.35 252.82-5.6 255.12-3.85 258.62-3.85L258.62-3.85Q262.67-3.85 265.37-5.75ZM272.72-25.35L277.62-25.35 277.62-21Q279.87-25.7 285.52-25.7L285.52-25.7Q289.27-25.7 291.47-23.4 293.67-21.1 293.67-17.15L293.67-17.15 293.67 0 288.77 0 288.77-16Q288.77-18.65 287.45-20.05 286.12-21.45 283.92-21.45L283.92-21.45Q281.32-21.45 279.47-19.43 277.62-17.4 277.62-13.75L277.62-13.75 277.62 0 272.72 0 272.72-25.35ZM313.62-8.45L313.62-11.3 309.82-11.3Q307.02-11.3 305.59-10.2 304.17-9.1 304.17-7.4L304.17-7.4Q304.17-5.65 305.27-4.65 306.37-3.65 308.47-3.65L308.47-3.65Q310.87-3.65 312.24-4.98 313.62-6.3 313.62-8.45L313.62-8.45ZM300.87-19.3L300.87-19.3 300.87-24.05Q303.82-25.75 308.67-25.75L308.67-25.75Q318.62-25.75 318.62-16.1L318.62-16.1 318.62 0 313.77 0 313.77-3Q311.82 0.2 306.92 0.2L306.92 0.2Q303.32 0.2 301.14-1.88 298.97-3.95 298.97-7.15L298.97-7.15Q298.97-10.8 301.72-12.83 304.47-14.85 309.42-14.85L309.42-14.85 313.62-14.85 313.62-16.3Q313.62-18.9 312.37-20.23 311.12-21.55 308.22-21.55L308.22-21.55Q304.17-21.55 300.87-19.3Z" opacity="1" transform="matrix(1,0,0,1,0,0)" fill="#636365" class="wordmark-text-0" data-fill-palette-color="primary" id="text-0"></path></svg></g></svg></g><g transform="matrix(1,0,0,1,0,66.7294815280762)"><svg viewBox="0 0 395.52 29.602107955785243" height="29.602107955785243" width="395.52"><path d="M395.52 0l-4.934 14.801 4.934 14.801h-395.52l4.934-14.801-4.934-14.801z" data-fill-palette-color="tertiary" opacity="1" fill="#636365"></path><g transform="matrix(1,0,0,1,75.54432,10.700816954514288)"><svg width="244.43135999999998" viewBox="3.759999990463257 -38.56999969482422 1334.510009765625 44.77000045776367" height="8.200474046756668" data-palette-color="#ffffff"><path d="M38.48-17.53L38.48-17.53Q38.48-16.11 38.48-14.55 38.48-12.99 38.13-11.57L38.13-11.57Q37.89-10.5 37.6-9.69 37.3-8.89 36.87-8.23 36.43-7.57 35.79-7.01 35.16-6.45 34.23-5.91L34.23-5.91Q33.94-5.71 32.67-5.4 31.4-5.08 29.52-4.64 27.64-4.2 25.32-3.71 23-3.22 20.58-2.76 18.16-2.29 15.8-1.83 13.43-1.37 11.5-1 9.57-0.63 8.23-0.37 6.88-0.1 6.45-0.05L6.45-0.05Q5.62-8.98 4.88-17.77 4.15-26.56 3.76-35.55L3.76-35.55Q7.86-35.4 11.91-35.23 15.97-35.06 20.12-34.77L20.12-34.77Q21.19-34.67 23.27-34.52 25.34-34.38 27.59-34.11 29.83-33.84 31.81-33.45 33.79-33.06 34.67-32.47L34.67-32.47Q35.79-31.64 36.67-30.22 37.55-28.81 37.94-27.44L37.94-27.44Q38.13-26.81 38.23-25.46 38.33-24.12 38.38-22.61 38.43-21.09 38.45-19.68 38.48-18.26 38.48-17.53ZM26.32-16.89L26.32-16.89Q26.32-17.43 26.29-18.04 26.27-18.65 26.22-19.19L26.22-19.19Q26.12-19.97 25.95-20.83 25.78-21.68 25.49-22.49 25.2-23.29 24.76-24 24.32-24.71 23.68-25.24L23.68-25.24Q23.34-25.54 22.02-25.71 20.7-25.88 19.14-25.95 17.58-26.03 16.21-26.05 14.84-26.07 14.45-26.07L14.45-26.07 12.45-26.07Q12.84-22.27 13.16-18.58 13.48-14.89 13.72-11.08L13.72-11.08Q14.65-11.13 16.38-11.35 18.12-11.57 19.92-11.94 21.73-12.3 23.29-12.87 24.85-13.43 25.54-14.21L25.54-14.21Q26.07-14.79 26.2-15.45 26.32-16.11 26.32-16.89ZM52.54-32.67L52.54-32.67Q52.54-31.69 52.12-30.83 51.71-29.98 51-29.35 50.29-28.71 49.41-28.34 48.53-27.98 47.65-27.98L47.65-27.98Q46.68-27.98 45.82-28.42 44.97-28.86 44.33-29.54 43.7-30.22 43.36-31.13 43.02-32.03 43.02-32.96L43.02-32.96Q43.02-33.89 43.38-34.69 43.75-35.5 44.36-36.08 44.97-36.67 45.77-37.01 46.58-37.35 47.51-37.35L47.51-37.35Q48.44-37.35 49.34-36.99 50.24-36.62 50.95-35.96 51.66-35.3 52.1-34.45 52.54-33.59 52.54-32.67ZM54.54-24.37L54.54-24.37Q54.29-21.78 54.15-19.24 54-16.7 53.85-14.16L53.85-14.16Q53.66-11.18 53.2-8.25 52.73-5.32 52.15-2.39L52.15-2.39 44.68-1.61Q44.68-3.17 44.7-4.69 44.72-6.2 44.72-7.76L44.72-7.76Q44.72-11.77 44.58-15.77 44.43-19.78 44.28-23.78L44.28-23.78Q46.87-23.88 49.39-24.07 51.9-24.27 54.54-24.37ZM90.08-27.54L90.08-27.54Q88.28-24.17 86.52-21.02 84.76-17.87 82.93-14.82 81.1-11.77 79.15-8.74 77.19-5.71 75-2.59L75-2.59 66.5-2.25 56.83-27.78 67.67-28.08Q68.65-23.54 69.55-19.02 70.45-14.5 71.43-9.91L71.43-9.91Q73.29-14.21 75.02-18.46 76.75-22.71 78.17-27.2L78.17-27.2Q81.2-27.2 84.13-27.25 87.06-27.29 90.08-27.54ZM100.09-32.67L100.09-32.67Q100.09-31.69 99.68-30.83 99.26-29.98 98.55-29.35 97.84-28.71 96.97-28.34 96.09-27.98 95.21-27.98L95.21-27.98Q94.23-27.98 93.38-28.42 92.52-28.86 91.89-29.54 91.25-30.22 90.91-31.13 90.57-32.03 90.57-32.96L90.57-32.96Q90.57-33.89 90.93-34.69 91.3-35.5 91.91-36.08 92.52-36.67 93.33-37.01 94.13-37.35 95.06-37.35L95.06-37.35Q95.99-37.35 96.89-36.99 97.8-36.62 98.5-35.96 99.21-35.3 99.65-34.45 100.09-33.59 100.09-32.67ZM102.09-24.37L102.09-24.37Q101.85-21.78 101.7-19.24 101.56-16.7 101.41-14.16L101.41-14.16Q101.21-11.18 100.75-8.25 100.29-5.32 99.7-2.39L99.7-2.39 92.23-1.61Q92.23-3.17 92.25-4.69 92.28-6.2 92.28-7.76L92.28-7.76Q92.28-11.77 92.13-15.77 91.98-19.78 91.84-23.78L91.84-23.78Q94.43-23.88 96.94-24.07 99.46-24.27 102.09-24.37ZM136.12-14.5L136.12-14.5Q136.12-13.18 136.12-11.84 136.12-10.5 136.03-9.18L136.03-9.18 125.14-8.5Q125.33-11.04 125.45-13.53 125.58-16.02 125.58-18.6L125.58-18.6Q125.58-18.85 125.58-19.43 125.58-20.02 125.53-20.68 125.48-21.34 125.43-21.92 125.38-22.51 125.33-22.75L125.33-22.75Q125.09-23.44 124.82-23.93 124.55-24.41 124.18-24.71 123.82-25 123.28-25.12 122.74-25.24 121.96-25.24L121.96-25.24Q121.38-25.24 120.47-25.15 119.57-25.05 118.64-24.85 117.71-24.66 116.88-24.37 116.05-24.07 115.71-23.68L115.71-23.68 115.62-9.28Q115.52-9.47 115.05-9.47 114.59-9.47 114.39-9.47L114.39-9.47Q112.93-9.47 111.37-9.35 109.8-9.23 108.34-9.03L108.34-9.03Q107.7-14.79 107.22-20.51 106.73-26.22 106.09-31.98L106.09-31.98Q107.07-32.03 108.05-32.06 109.02-32.08 110-32.08L110-32.08Q111.27-32.08 112.56-32.01 113.86-31.93 115.13-31.88L115.13-31.88 115.47-28.13Q116.84-30.37 119.18-31.88 121.52-33.4 124.21-33.4L124.21-33.4Q125.58-33.4 127.04-33.25 128.51-33.11 129.85-32.67 131.19-32.23 132.39-31.45 133.58-30.66 134.41-29.44L134.41-29.44Q134.8-28.86 135.07-27.71 135.34-26.56 135.54-25.12 135.73-23.68 135.85-22.07 135.98-20.46 136.03-18.99 136.07-17.53 136.1-16.33 136.12-15.14 136.12-14.5ZM173.43-17.29L173.43-17.29Q173.43-15.23 173.4-13.21 173.38-11.18 173.38-9.13L173.38-9.13Q173.33-8.06 173.35-6.93 173.38-5.81 173.28-4.69L173.28-4.69Q173.13-3.61 172.99-2.42 172.84-1.22 172.5-0.05 172.16 1.12 171.59 2.15 171.03 3.17 170.1 3.91L170.1 3.91Q169.86 4.1 169.13 4.25 168.4 4.39 167.42 4.54 166.44 4.69 165.32 4.79 164.2 4.88 163.17 4.96 162.15 5.03 161.32 5.1 160.49 5.18 160.14 5.18L160.14 5.18Q157.07 5.27 154.06 5.32 151.06 5.37 147.99 5.37L147.99 5.37 144.86 5.37Q144.76 4.54 144.67 3.66 144.57 2.78 144.57 1.9L144.57 1.9Q144.57 0.93 144.37-0.12 144.18-1.17 143.93-2.2L143.93-2.2 147.16-2.15Q147.45-2.15 148.79-2.17 150.13-2.2 151.94-2.22 153.75-2.25 155.82-2.32 157.9-2.39 159.66-2.54 161.41-2.69 162.66-2.88 163.9-3.08 164.05-3.32L164.05-3.32Q164.44-3.96 164.54-4.76 164.64-5.57 164.64-6.3L164.64-6.3Q164.64-6.69 164.61-7.1 164.59-7.52 164.54-7.91L164.54-7.91Q161.8-7.71 159.12-7.57 156.43-7.42 153.65-7.42L153.65-7.42Q153.01-7.42 152.06-7.42 151.11-7.42 150.11-7.47 149.11-7.52 148.16-7.62 147.2-7.71 146.62-7.91L146.62-7.91Q145.64-8.2 144.64-8.57 143.64-8.94 142.76-9.47 141.88-10.01 141.22-10.77 140.56-11.52 140.32-12.6L140.32-12.6Q140.17-13.13 140.15-13.77 140.12-14.4 140.12-14.94L140.12-14.94Q140.12-16.31 140.27-18.41 140.42-20.51 140.78-22.68 141.15-24.85 141.76-26.78 142.37-28.71 143.3-29.69L143.3-29.69Q143.84-30.27 145.03-30.71 146.23-31.15 147.74-31.45 149.26-31.74 150.94-31.96 152.62-32.18 154.24-32.28 155.85-32.37 157.19-32.42 158.53-32.47 159.31-32.47L159.31-32.47Q162.05-32.47 164.78-32.32L164.78-32.32 165.12-35.45 173.33-34.23Q173.38-29.98 173.4-25.78 173.43-21.58 173.43-17.29ZM164.78-18.21L164.78-18.21Q164.78-19.78 164.73-21.26 164.68-22.75 164.59-24.32L164.59-24.32Q162.44-24.8 160.29-25.1 158.14-25.39 155.9-25.39L155.9-25.39Q155.51-25.39 154.72-25.34 153.94-25.29 153.09-25.17 152.23-25.05 151.5-24.83 150.77-24.61 150.48-24.32L150.48-24.32Q150.04-23.83 149.94-23.19 149.84-22.56 149.84-21.92L149.84-21.92Q149.84-21.39 149.96-20.29 150.09-19.19 150.28-18.02 150.48-16.85 150.77-15.82 151.06-14.79 151.35-14.4L151.35-14.4Q151.65-14.01 152.09-13.82 152.53-13.62 153.04-13.55 153.55-13.48 154.06-13.45 154.58-13.43 154.97-13.43L154.97-13.43Q155.94-13.43 157.34-13.5 158.73-13.57 160.12-13.77 161.51-13.96 162.73-14.33 163.95-14.7 164.59-15.33L164.59-15.33Q164.68-15.38 164.73-15.82 164.78-16.26 164.78-16.75 164.78-17.24 164.78-17.68 164.78-18.12 164.78-18.21ZM234.99-17.53L234.99-17.53Q234.99-16.11 234.99-14.55 234.99-12.99 234.65-11.57L234.65-11.57Q234.41-10.5 234.11-9.69 233.82-8.89 233.38-8.23 232.94-7.57 232.31-7.01 231.67-6.45 230.74-5.91L230.74-5.91Q230.45-5.71 229.18-5.4 227.91-5.08 226.03-4.64 224.15-4.2 221.83-3.71 219.51-3.22 217.1-2.76 214.68-2.29 212.31-1.83 209.94-1.37 208.01-1 206.09-0.63 204.74-0.37 203.4-0.1 202.96-0.05L202.96-0.05Q202.13-8.98 201.4-17.77 200.67-26.56 200.28-35.55L200.28-35.55Q204.38-35.4 208.43-35.23 212.48-35.06 216.63-34.77L216.63-34.77Q217.71-34.67 219.78-34.52 221.86-34.38 224.1-34.11 226.35-33.84 228.33-33.45 230.3-33.06 231.18-32.47L231.18-32.47Q232.31-31.64 233.19-30.22 234.06-28.81 234.46-27.44L234.46-27.44Q234.65-26.81 234.75-25.46 234.85-24.12 234.89-22.61 234.94-21.09 234.97-19.68 234.99-18.26 234.99-17.53ZM222.83-16.89L222.83-16.89Q222.83-17.43 222.81-18.04 222.79-18.65 222.74-19.19L222.74-19.19Q222.64-19.97 222.47-20.83 222.3-21.68 222-22.49 221.71-23.29 221.27-24 220.83-24.71 220.2-25.24L220.2-25.24Q219.86-25.54 218.54-25.71 217.22-25.88 215.66-25.95 214.09-26.03 212.73-26.05 211.36-26.07 210.97-26.07L210.97-26.07 208.97-26.07Q209.36-22.27 209.67-18.58 209.99-14.89 210.24-11.08L210.24-11.08Q211.16-11.13 212.9-11.35 214.63-11.57 216.44-11.94 218.24-12.3 219.81-12.87 221.37-13.43 222.05-14.21L222.05-14.21Q222.59-14.79 222.71-15.45 222.83-16.11 222.83-16.89ZM273.95-18.12L273.95-18.12Q267.56-17.77 261.21-17.55 254.86-17.33 248.47-17.09L248.47-17.09Q248.42-16.89 248.42-16.7 248.42-16.5 248.42-16.31L248.42-16.31Q248.42-14.65 249.17-13.77 249.93-12.89 251.05-12.52 252.18-12.16 253.54-12.11 254.91-12.06 256.08-12.06L256.08-12.06Q259.36-12.06 262.63-12.28 265.9-12.5 269.22-12.74L269.22-12.74 269.61-4.98Q266.39-4.83 263.19-4.74 259.99-4.64 256.77-4.64L256.77-4.64Q256.08-4.64 254.25-4.66 252.42-4.69 250.35-4.81 248.27-4.93 246.46-5.13 244.66-5.32 244.07-5.66L244.07-5.66Q242.56-6.54 241.7-7.91 240.85-9.28 240.39-10.89 239.92-12.5 239.75-14.18 239.58-15.87 239.53-17.43L239.53-17.43Q239.48-17.68 239.51-17.94 239.53-18.21 239.53-18.46L239.53-18.46Q239.53-21.04 240.09-23.27 240.65-25.49 242.17-27.59L242.17-27.59Q243.19-29.05 245.19-30.03 247.2-31.01 249.54-31.57 251.88-32.13 254.23-32.35 256.57-32.57 258.28-32.57L258.28-32.57Q259.79-32.57 261.99-32.3 264.19-32.03 266.36-31.4 268.53-30.76 270.29-29.76 272.05-28.76 272.69-27.29L272.69-27.29Q272.78-27 272.9-26.29 273.03-25.59 273.17-24.68 273.32-23.78 273.44-22.75 273.56-21.73 273.66-20.8 273.76-19.87 273.83-19.14 273.91-18.41 273.95-18.12ZM251.01-21.14L267.31-21.68Q267.02-23.83 266.22-25.07 265.41-26.32 264.21-26.93 263.02-27.54 261.48-27.71 259.94-27.88 258.18-27.88L258.18-27.88Q257.6-27.88 256.72-27.86 255.84-27.83 254.96-27.71 254.08-27.59 253.3-27.34 252.52-27.1 252.08-26.66L252.08-26.66Q251.74-26.37 251.52-25.85 251.3-25.34 251.15-24.76 251.01-24.17 250.93-23.61 250.86-23.05 250.86-22.66L250.86-22.66Q250.86-21.88 251.01-21.14L251.01-21.14ZM310.92-18.12L310.92-18.12Q304.52-17.77 298.17-17.55 291.82-17.33 285.43-17.09L285.43-17.09Q285.38-16.89 285.38-16.7 285.38-16.5 285.38-16.31L285.38-16.31Q285.38-14.65 286.13-13.77 286.89-12.89 288.01-12.52 289.14-12.16 290.5-12.11 291.87-12.06 293.04-12.06L293.04-12.06Q296.32-12.06 299.59-12.28 302.86-12.5 306.18-12.74L306.18-12.74 306.57-4.98Q303.35-4.83 300.15-4.74 296.95-4.64 293.73-4.64L293.73-4.64Q293.04-4.64 291.21-4.66 289.38-4.69 287.31-4.81 285.23-4.93 283.42-5.13 281.62-5.32 281.03-5.66L281.03-5.66Q279.52-6.54 278.66-7.91 277.81-9.28 277.35-10.89 276.88-12.5 276.71-14.18 276.54-15.87 276.49-17.43L276.49-17.43Q276.44-17.68 276.47-17.94 276.49-18.21 276.49-18.46L276.49-18.46Q276.49-21.04 277.05-23.27 277.61-25.49 279.13-27.59L279.13-27.59Q280.15-29.05 282.16-30.03 284.16-31.01 286.5-31.57 288.84-32.13 291.19-32.35 293.53-32.57 295.24-32.57L295.24-32.57Q296.75-32.57 298.95-32.3 301.15-32.03 303.32-31.4 305.5-30.76 307.25-29.76 309.01-28.76 309.65-27.29L309.65-27.29Q309.74-27 309.87-26.29 309.99-25.59 310.13-24.68 310.28-23.78 310.4-22.75 310.52-21.73 310.62-20.8 310.72-19.87 310.79-19.14 310.87-18.41 310.92-18.12ZM287.97-21.14L304.27-21.68Q303.98-23.83 303.18-25.07 302.37-26.32 301.17-26.93 299.98-27.54 298.44-27.71 296.9-27.88 295.14-27.88L295.14-27.88Q294.56-27.88 293.68-27.86 292.8-27.83 291.92-27.71 291.04-27.59 290.26-27.34 289.48-27.1 289.04-26.66L289.04-26.66Q288.7-26.37 288.48-25.85 288.26-25.34 288.11-24.76 287.97-24.17 287.89-23.61 287.82-23.05 287.82-22.66L287.82-22.66Q287.82-21.88 287.97-21.14L287.97-21.14ZM349.24-16.65L349.24-16.65Q349.24-15.97 349.22-15.16 349.19-14.36 349.07-13.53 348.95-12.7 348.73-11.94 348.51-11.18 348.12-10.6L348.12-10.6Q347.29-9.38 346.56-8.52 345.82-7.67 344.97-7.1 344.12-6.54 343.04-6.2 341.97-5.86 340.5-5.66L340.5-5.66Q338.31-5.32 336.16-5.05 334.01-4.79 331.81-4.79L331.81-4.79Q330.83-4.79 329.81-4.88 328.78-4.98 327.9-5.52L327.9-5.52Q327.42-5.76 326.85-6.18 326.29-6.59 325.76-7.06 325.22-7.52 324.71-7.98 324.19-8.45 323.8-8.79L323.8-8.79 323.51 3.47Q322.14 3.56 320.78 3.54 319.41 3.52 317.99 3.52L317.99 3.52Q317.16 3.52 316.41 3.54 315.65 3.56 314.82 3.61L314.82 3.61Q315.01-0.59 315.18-4.76 315.36-8.94 315.36-13.09L315.36-13.09 315.36-13.67Q315.36-18.31 315.11-22.9 314.87-27.49 314.67-32.13L314.67-32.13Q317.11-32.32 319.51-32.47 321.9-32.62 324.34-32.81L324.34-32.81 324.68-30.22Q328.05-30.62 331.44-30.88 334.84-31.15 338.26-31.15L338.26-31.15Q338.7-31.15 339.21-31.18 339.72-31.2 340.16-31.1L340.16-31.1Q341.33-30.86 342.55-30.49 343.77-30.13 344.85-29.54 345.92-28.96 346.75-28.05 347.58-27.15 348.02-25.88L348.02-25.88Q348.31-24.9 348.56-23.73 348.8-22.56 348.95-21.31 349.1-20.07 349.17-18.87 349.24-17.68 349.24-16.65ZM339.62-17.53L339.62-17.53Q339.62-18.12 339.53-18.8 339.43-19.48 339.04-19.92L339.04-19.92Q338.06-21.04 336.6-21.66 335.13-22.27 333.72-22.27L333.72-22.27Q332.54-22.27 331.18-22.05 329.81-21.83 328.44-21.46 327.07-21.09 325.76-20.63 324.44-20.17 323.36-19.73L323.36-19.73 323.8-13.18Q325.61-12.65 327.68-12.21 329.76-11.77 331.62-11.77L331.62-11.77Q332.1-11.77 333.13-11.74 334.15-11.72 335.25-11.79 336.35-11.87 337.3-12.01 338.26-12.16 338.55-12.55L338.55-12.55Q338.79-12.84 338.99-13.5 339.18-14.16 339.33-14.92 339.48-15.67 339.55-16.38 339.62-17.09 339.62-17.53ZM382.39-32.67L382.39-32.67Q382.39-31.69 381.98-30.83 381.56-29.98 380.85-29.35 380.15-28.71 379.27-28.34 378.39-27.98 377.51-27.98L377.51-27.98Q376.53-27.98 375.68-28.42 374.82-28.86 374.19-29.54 373.55-30.22 373.21-31.13 372.87-32.03 372.87-32.96L372.87-32.96Q372.87-33.89 373.24-34.69 373.6-35.5 374.21-36.08 374.82-36.67 375.63-37.01 376.43-37.35 377.36-37.35L377.36-37.35Q378.29-37.35 379.19-36.99 380.1-36.62 380.8-35.96 381.51-35.3 381.95-34.45 382.39-33.59 382.39-32.67ZM384.39-24.37L384.39-24.37Q384.15-21.78 384-19.24 383.86-16.7 383.71-14.16L383.71-14.16Q383.51-11.18 383.05-8.25 382.59-5.32 382-2.39L382-2.39 374.53-1.61Q374.53-3.17 374.55-4.69 374.58-6.2 374.58-7.76L374.58-7.76Q374.58-11.77 374.43-15.77 374.29-19.78 374.14-23.78L374.14-23.78Q376.73-23.88 379.24-24.07 381.76-24.27 384.39-24.37ZM418.42-14.5L418.42-14.5Q418.42-13.18 418.42-11.84 418.42-10.5 418.33-9.18L418.33-9.18 407.44-8.5Q407.63-11.04 407.76-13.53 407.88-16.02 407.88-18.6L407.88-18.6Q407.88-18.85 407.88-19.43 407.88-20.02 407.83-20.68 407.78-21.34 407.73-21.92 407.68-22.51 407.63-22.75L407.63-22.75Q407.39-23.44 407.12-23.93 406.85-24.41 406.49-24.71 406.12-25 405.58-25.12 405.05-25.24 404.26-25.24L404.26-25.24Q403.68-25.24 402.78-25.15 401.87-25.05 400.94-24.85 400.02-24.66 399.19-24.37 398.36-24.07 398.01-23.68L398.01-23.68 397.92-9.28Q397.82-9.47 397.36-9.47 396.89-9.47 396.7-9.47L396.7-9.47Q395.23-9.47 393.67-9.35 392.11-9.23 390.64-9.03L390.64-9.03Q390.01-14.79 389.52-20.51 389.03-26.22 388.4-31.98L388.4-31.98Q389.37-32.03 390.35-32.06 391.32-32.08 392.3-32.08L392.3-32.08Q393.57-32.08 394.86-32.01 396.16-31.93 397.43-31.88L397.43-31.88 397.77-28.13Q399.14-30.37 401.48-31.88 403.82-33.4 406.51-33.4L406.51-33.4Q407.88-33.4 409.34-33.25 410.81-33.11 412.15-32.67 413.49-32.23 414.69-31.45 415.89-30.66 416.72-29.44L416.72-29.44Q417.11-28.86 417.37-27.71 417.64-26.56 417.84-25.12 418.03-23.68 418.16-22.07 418.28-20.46 418.33-18.99 418.38-17.53 418.4-16.33 418.42-15.14 418.42-14.5ZM447.43-8.64L447.43-8.64 446.6-0.05Q445.03 0.05 443.47 0.12 441.91 0.2 440.35 0.2L440.35 0.2Q439.52 0.2 438.15 0.15 436.78 0.1 435.32-0.02 433.85-0.15 432.53-0.37 431.22-0.59 430.43-0.93L430.43-0.93Q429.26-1.46 428.51-2.34 427.75-3.22 427.26-4.27 426.77-5.32 426.48-6.52 426.19-7.71 426.04-8.89L426.04-8.89Q425.89-10.01 425.82-11.3 425.75-12.6 425.72-13.96 425.7-15.33 425.7-16.63 425.7-17.92 425.7-19.04L425.7-19.04 425.7-20.51 422.67-20.51Q422.87-22.71 422.89-24.85 422.91-27 423.11-29.2L423.11-29.2 426.04-29.1 426.04-36.33Q428.82-35.79 431.58-35.77 434.34-35.74 437.12-35.55L437.12-35.55 437.03-28.08 441.13-27.83Q441.13-27.49 441.15-27.2 441.18-26.9 441.18-26.56L441.18-26.56Q441.18-25.2 440.96-23.9 440.74-22.61 440.39-21.29L440.39-21.29 436.83-21.29Q436.73-19.04 436.68-16.8 436.63-14.55 436.63-12.3L436.63-12.3Q436.63-11.23 436.71-10.38 436.78-9.52 437.1-8.94 437.42-8.35 438.15-8.06 438.88-7.76 440.2-7.76L440.2-7.76Q442.01-7.76 443.81-8.01 445.62-8.25 447.43-8.64ZM483.46-19.34L483.46-19.34Q483.46-18.95 483.46-18.58 483.46-18.21 483.41-17.82L483.41-17.82Q483.36-17.14 483.17-15.58 482.97-14.01 482.63-12.33 482.29-10.64 481.8-9.23 481.31-7.81 480.72-7.42L480.72-7.42Q480.43-7.23 478.75-7.08 477.06-6.93 474.65-6.79 472.23-6.64 469.4-6.54 466.56-6.45 464-6.37 461.44-6.3 459.51-6.25 457.58-6.2 456.94-6.2L456.94-6.2Q456.65-6.2 455.94-6.2 455.24-6.2 454.45-6.23 453.67-6.25 452.99-6.3 452.31-6.35 452.01-6.45L452.01-6.45Q451.33-6.69 450.65-7.25 449.96-7.81 449.38-8.52 448.79-9.23 448.33-9.99 447.86-10.74 447.67-11.43L447.67-11.43Q447.52-11.96 447.42-13.06 447.33-14.16 447.28-15.36 447.23-16.55 447.2-17.68 447.18-18.8 447.18-19.38L447.18-19.38Q447.18-20.31 447.23-21.95 447.28-23.58 447.52-25.29 447.77-27 448.23-28.49 448.69-29.98 449.57-30.57L449.57-30.57Q449.96-30.81 451.04-31.01 452.11-31.2 453.58-31.35 455.04-31.49 456.7-31.57 458.36-31.64 459.95-31.67 461.53-31.69 462.9-31.69 464.27-31.69 465.1-31.64L465.1-31.64Q465.83-31.59 467.2-31.57 468.57-31.54 470.25-31.49 471.94-31.45 473.74-31.32 475.55-31.2 477.11-31.01 478.67-30.81 479.87-30.49 481.07-30.18 481.46-29.74L481.46-29.74Q482.09-29.05 482.48-27.69 482.87-26.32 483.09-24.78 483.31-23.24 483.39-21.75 483.46-20.26 483.46-19.34ZM473.11-18.31L473.11-18.31Q473.11-18.9 473.06-19.68 473.01-20.46 472.91-21.26 472.81-22.07 472.62-22.83 472.42-23.58 472.13-24.07L472.13-24.07Q471.74-24.71 470.62-25.05 469.49-25.39 468.15-25.56 466.81-25.73 465.51-25.78 464.22-25.83 463.59-25.83L463.59-25.83Q463.24-25.83 462.36-25.81 461.49-25.78 460.53-25.73 459.58-25.68 458.75-25.56 457.92-25.44 457.68-25.29L457.68-25.29Q457.24-25 456.99-24.39 456.75-23.78 456.63-23.05 456.51-22.31 456.48-21.61 456.46-20.9 456.46-20.46L456.46-20.46Q456.46-20.02 456.53-18.87 456.6-17.72 456.73-16.43 456.85-15.14 457.04-14.06 457.24-12.99 457.53-12.7L457.53-12.7Q457.87-12.3 458.82-12.06 459.78-11.82 460.88-11.65 461.97-11.47 463-11.4 464.03-11.33 464.46-11.33L464.46-11.33Q465.25-11.33 466.32-11.38 467.39-11.43 468.49-11.62 469.59-11.82 470.57-12.16 471.54-12.5 472.13-13.09L472.13-13.09Q472.47-13.43 472.67-14.11 472.86-14.79 472.96-15.58 473.06-16.36 473.08-17.11 473.11-17.87 473.11-18.31ZM532.38-8.64L532.38-8.64 531.55-0.05Q529.99 0.05 528.42 0.12 526.86 0.2 525.3 0.2L525.3 0.2Q524.47 0.2 523.1 0.15 521.73 0.1 520.27-0.02 518.81-0.15 517.49-0.37 516.17-0.59 515.39-0.93L515.39-0.93Q514.22-1.46 513.46-2.34 512.7-3.22 512.21-4.27 511.73-5.32 511.43-6.52 511.14-7.71 510.99-8.89L510.99-8.89Q510.85-10.01 510.77-11.3 510.7-12.6 510.68-13.96 510.65-15.33 510.65-16.63 510.65-17.92 510.65-19.04L510.65-19.04 510.65-20.51 507.62-20.51Q507.82-22.71 507.84-24.85 507.87-27 508.06-29.2L508.06-29.2 510.99-29.1 510.99-36.33Q513.78-35.79 516.53-35.77 519.29-35.74 522.08-35.55L522.08-35.55 521.98-28.08 526.08-27.83Q526.08-27.49 526.1-27.2 526.13-26.9 526.13-26.56L526.13-26.56Q526.13-25.2 525.91-23.9 525.69-22.61 525.35-21.29L525.35-21.29 521.78-21.29Q521.69-19.04 521.64-16.8 521.59-14.55 521.59-12.3L521.59-12.3Q521.59-11.23 521.66-10.38 521.73-9.52 522.05-8.94 522.37-8.35 523.1-8.06 523.83-7.76 525.15-7.76L525.15-7.76Q526.96-7.76 528.77-8.01 530.57-8.25 532.38-8.64ZM565.43-19.04L565.43-19.04Q565.43-17.24 565.21-15.41 564.99-13.57 564.75-11.77L564.75-11.77Q564.36-8.59 563.87-5.49 563.38-2.39 562.89 0.78L562.89 0.78Q560.5 0.83 558.21 0.98 555.91 1.12 553.57 1.32L553.57 1.32Q553.57-2.25 553.57-5.74 553.57-9.23 553.42-12.74L553.42-12.74Q553.42-13.43 553.4-14.5 553.37-15.58 553.18-16.26L553.18-16.26Q552.88-17.38 552.45-17.8 552.01-18.21 550.74-18.21L550.74-18.21Q549.86-18.21 548.69-18.02 547.51-17.82 546.29-17.53 545.07-17.24 543.97-16.87 542.87-16.5 542.14-16.11L542.14-16.11Q541.75-12.16 541.19-8.25 540.63-4.35 540.48-0.34L540.48-0.34 533.6-0.68Q533.06-9.47 532.57-18.19 532.08-26.9 531.64-35.69L531.64-35.69 542.39-36.38Q542.29-33.15 542.19-29.96 542.09-26.76 542-23.54L542-23.54Q542.92-24.32 544.1-24.73 545.27-25.15 546.51-25.29 547.76-25.44 549.03-25.44 550.3-25.44 551.47-25.44L551.47-25.44Q553.23-25.44 555.45-25.32 557.67-25.2 559.7-24.63 561.72-24.07 563.29-22.85 564.85-21.63 565.38-19.43L565.38-19.43Q565.43-19.34 565.43-19.24 565.43-19.14 565.43-19.04ZM603.13-18.12L603.13-18.12Q596.73-17.77 590.38-17.55 584.03-17.33 577.64-17.09L577.64-17.09Q577.59-16.89 577.59-16.7 577.59-16.5 577.59-16.31L577.59-16.31Q577.59-14.65 578.35-13.77 579.1-12.89 580.23-12.52 581.35-12.16 582.72-12.11 584.08-12.06 585.26-12.06L585.26-12.06Q588.53-12.06 591.8-12.28 595.07-12.5 598.39-12.74L598.39-12.74 598.78-4.98Q595.56-4.83 592.36-4.74 589.16-4.64 585.94-4.64L585.94-4.64Q585.26-4.64 583.42-4.66 581.59-4.69 579.52-4.81 577.44-4.93 575.64-5.13 573.83-5.32 573.24-5.66L573.24-5.66Q571.73-6.54 570.88-7.91 570.02-9.28 569.56-10.89 569.09-12.5 568.92-14.18 568.75-15.87 568.7-17.43L568.7-17.43Q568.65-17.68 568.68-17.94 568.7-18.21 568.7-18.46L568.7-18.46Q568.7-21.04 569.26-23.27 569.83-25.49 571.34-27.59L571.34-27.59Q572.36-29.05 574.37-30.03 576.37-31.01 578.71-31.57 581.06-32.13 583.4-32.35 585.74-32.57 587.45-32.57L587.45-32.57Q588.97-32.57 591.16-32.3 593.36-32.03 595.53-31.4 597.71-30.76 599.46-29.76 601.22-28.76 601.86-27.29L601.86-27.29Q601.95-27 602.08-26.29 602.2-25.59 602.35-24.68 602.49-23.78 602.61-22.75 602.74-21.73 602.83-20.8 602.93-19.87 603-19.14 603.08-18.41 603.13-18.12ZM580.18-21.14L596.49-21.68Q596.19-23.83 595.39-25.07 594.58-26.32 593.39-26.93 592.19-27.54 590.65-27.71 589.11-27.88 587.35-27.88L587.35-27.88Q586.77-27.88 585.89-27.86 585.01-27.83 584.13-27.71 583.25-27.59 582.47-27.34 581.69-27.1 581.25-26.66L581.25-26.66Q580.91-26.37 580.69-25.85 580.47-25.34 580.32-24.76 580.18-24.17 580.1-23.61 580.03-23.05 580.03-22.66L580.03-22.66Q580.03-21.88 580.18-21.14L580.18-21.14ZM662.4-35.99L669.92-35.6Q668.89-26.46 667.38-17.85 665.87-9.23 663.81-0.24L663.81-0.24Q663.28-0.2 662.69-0.2 662.11-0.2 661.57-0.2L661.57-0.2Q660.3-0.2 659.05-0.24 657.81-0.29 656.54-0.54L656.54-0.54Q654.98-3.81 653.27-7.01 651.56-10.21 650.05-13.57L650.05-13.57Q649.36-11.91 648.51-10.35 647.65-8.79 646.68-7.23L646.68-7.23Q645.41-5.32 644.23-3.37 643.06-1.42 641.94 0.59L641.94 0.59 633.98 0.39Q632.86-4 631.86-8.3 630.86-12.6 629.88-16.99L629.88-16.99Q628.61-22.46 627.27-27.81 625.92-33.15 624.51-38.57L624.51-38.57 638.67-38.57Q638.86-36.96 639.01-35.35 639.16-33.74 639.3-32.18L639.3-32.18Q639.69-27.93 640.18-23.75 640.67-19.58 641.16-15.33L641.16-15.33Q641.99-18.31 642.84-21.24 643.7-24.17 644.72-27.1L644.72-27.1Q645.6-29.74 646.43-32.3 647.26-34.86 648.04-37.5L648.04-37.5 650.44-37.5Q652.05-31.59 654.05-25.9 656.05-20.21 658.39-14.55L658.39-14.55Q659.62-19.87 660.52-25.24 661.42-30.62 662.4-35.99L662.4-35.99ZM709.95-19.34L709.95-19.34Q709.95-18.95 709.95-18.58 709.95-18.21 709.91-17.82L709.91-17.82Q709.86-17.14 709.66-15.58 709.47-14.01 709.12-12.33 708.78-10.64 708.29-9.23 707.81-7.81 707.22-7.42L707.22-7.42Q706.93-7.23 705.24-7.08 703.56-6.93 701.14-6.79 698.72-6.64 695.89-6.54 693.06-6.45 690.5-6.37 687.93-6.3 686-6.25 684.08-6.2 683.44-6.2L683.44-6.2Q683.15-6.2 682.44-6.2 681.73-6.2 680.95-6.23 680.17-6.25 679.49-6.3 678.8-6.35 678.51-6.45L678.51-6.45Q677.83-6.69 677.14-7.25 676.46-7.81 675.87-8.52 675.29-9.23 674.82-9.99 674.36-10.74 674.16-11.43L674.16-11.43Q674.02-11.96 673.92-13.06 673.82-14.16 673.77-15.36 673.72-16.55 673.7-17.68 673.68-18.8 673.68-19.38L673.68-19.38Q673.68-20.31 673.72-21.95 673.77-23.58 674.02-25.29 674.26-27 674.73-28.49 675.19-29.98 676.07-30.57L676.07-30.57Q676.46-30.81 677.53-31.01 678.61-31.2 680.07-31.35 681.54-31.49 683.2-31.57 684.86-31.64 686.44-31.67 688.03-31.69 689.4-31.69 690.77-31.69 691.6-31.64L691.6-31.64Q692.33-31.59 693.69-31.57 695.06-31.54 696.75-31.49 698.43-31.45 700.24-31.32 702.04-31.2 703.61-31.01 705.17-30.81 706.37-30.49 707.56-30.18 707.95-29.74L707.95-29.74Q708.59-29.05 708.98-27.69 709.37-26.32 709.59-24.78 709.81-23.24 709.88-21.75 709.95-20.26 709.95-19.34ZM699.6-18.31L699.6-18.31Q699.6-18.9 699.55-19.68 699.51-20.46 699.41-21.26 699.31-22.07 699.11-22.83 698.92-23.58 698.63-24.07L698.63-24.07Q698.24-24.71 697.11-25.05 695.99-25.39 694.65-25.56 693.3-25.73 692.01-25.78 690.72-25.83 690.08-25.83L690.08-25.83Q689.74-25.83 688.86-25.81 687.98-25.78 687.03-25.73 686.08-25.68 685.25-25.56 684.42-25.44 684.17-25.29L684.17-25.29Q683.73-25 683.49-24.39 683.25-23.78 683.12-23.05 683-22.31 682.98-21.61 682.95-20.9 682.95-20.46L682.95-20.46Q682.95-20.02 683.03-18.87 683.1-17.72 683.22-16.43 683.34-15.14 683.54-14.06 683.73-12.99 684.03-12.7L684.03-12.7Q684.37-12.3 685.32-12.06 686.27-11.82 687.37-11.65 688.47-11.47 689.5-11.4 690.52-11.33 690.96-11.33L690.96-11.33Q691.74-11.33 692.82-11.38 693.89-11.43 694.99-11.62 696.09-11.82 697.06-12.16 698.04-12.5 698.63-13.09L698.63-13.09Q698.97-13.43 699.16-14.11 699.36-14.79 699.46-15.58 699.55-16.36 699.58-17.11 699.6-17.87 699.6-18.31ZM743.25-20.61L743.25-20.61 743.25-19.48 733.83-19.04Q733.98-19.68 733.98-20.51L733.98-20.51Q733.98-21.73 733.63-22.09 733.29-22.46 732.12-22.46L732.12-22.46Q730.46-22.46 728.46-21.88 726.46-21.29 724.94-20.75L724.94-20.75Q724.7-18.6 724.55-16.46 724.41-14.31 724.41-12.16L724.41-12.16Q724.41-9.77 724.43-7.4 724.45-5.03 724.5-2.64L724.5-2.64 716.1-2.1Q715.86-5.22 715.62-8.33 715.37-11.43 715.18-14.55L715.18-14.55Q714.93-18.7 714.54-22.83 714.15-26.95 713.76-31.15L713.76-31.15Q716.54-30.96 719.3-30.59 722.06-30.22 724.84-29.69L724.84-29.69 724.6-25.59Q726.07-26.76 727.41-27.61 728.75-28.47 730.14-29.05 731.53-29.64 733.1-29.91 734.66-30.18 736.56-30.18L736.56-30.18Q737.83-30.18 739.2-29.91 740.57-29.64 741.54-28.66L741.54-28.66Q742.03-28.13 742.37-27.05 742.72-25.98 742.91-24.78 743.11-23.58 743.18-22.44 743.25-21.29 743.25-20.61ZM745.5-36.52L756.39-37.55Q755.99-32.81 755.63-28.13 755.26-23.44 755.02-18.7L755.02-18.7Q754.77-14.4 754.51-10.18 754.24-5.96 753.99-1.66L753.99-1.66 746.52-1.27Q746.52-5.71 746.55-10.08 746.57-14.45 746.47-18.9L746.47-18.9Q746.38-23.34 746.08-27.71 745.79-32.08 745.5-36.52L745.5-36.52ZM794.37-27.15L794.37-27.15Q794.37-25.1 794.37-23.1 794.37-21.09 794.27-19.04L794.27-19.04Q794.18-14.55 793.88-10.13 793.59-5.71 793.25-1.27L793.25-1.27Q788.8-0.98 784.46-0.78 780.11-0.59 775.67-0.59L775.67-0.59Q775.08-0.59 773.81-0.61 772.54-0.63 771.1-0.68 769.66-0.73 768.39-0.85 767.12-0.98 766.54-1.22L766.54-1.22Q762.78-2.59 760.95-4.91 759.12-7.23 759.12-11.33L759.12-11.33 759.12-12.11Q759.21-13.92 759.41-15.33 759.61-16.75 760.12-17.92 760.63-19.09 761.53-20.09 762.44-21.09 764-22.12L764-22.12Q765.07-22.85 766.54-23.34 768-23.83 769.59-24.17 771.18-24.51 772.72-24.66 774.25-24.8 775.52-24.8L775.52-24.8Q777.87-24.8 780.19-24.46 782.51-24.12 784.8-23.44L784.8-23.44Q784.56-26.66 784.39-29.81 784.21-32.96 783.87-36.13L783.87-36.13Q786.51-36.38 789.1-36.67 791.69-36.96 794.27-37.26L794.27-37.26Q794.32-34.72 794.35-32.2 794.37-29.69 794.37-27.15ZM786.9-12.4L786.9-12.4Q786.9-13.53 786.9-14.65 786.9-15.77 786.85-16.89L786.85-16.89Q783.78-17.04 780.7-17.04L780.7-17.04Q780.26-17.04 778.84-17.02 777.43-16.99 775.84-16.92 774.25-16.85 772.89-16.67 771.52-16.5 771.13-16.26L771.13-16.26Q770.4-15.72 770.23-14.75 770.05-13.77 770.05-12.94L770.05-12.94Q770.05-12.55 770.1-11.89 770.15-11.23 770.27-10.52 770.4-9.81 770.59-9.2 770.79-8.59 771.03-8.3L771.03-8.3Q771.18-8.15 771.54-8.06 771.91-7.96 772.35-7.91 772.79-7.86 773.2-7.86 773.62-7.86 773.86-7.86L773.86-7.86Q776.65-7.86 779.38-8.11 782.12-8.35 784.9-8.74L784.9-8.74Q785.29-8.84 785.83-8.86 786.36-8.89 786.8-9.03L786.8-9.03 786.8-9.13Q786.8-9.18 786.85-9.23L786.85-9.23Q786.95-10.01 786.92-10.79 786.9-11.57 786.9-12.4ZM826.74-33.89L826.74-33.89 826.45-27.54Q824.93-27.64 823.42-27.69 821.91-27.73 820.39-27.73L820.39-27.73Q819.76-27.73 818.59-27.71 817.42-27.69 815.98-27.64 814.53-27.59 813.02-27.49 811.51-27.39 810.24-27.29 808.97-27.2 808.09-27.05 807.21-26.9 807.02-26.76L807.02-26.76Q806.38-26.12 806.38-25.29L806.38-25.29Q806.38-24.76 806.67-24.41L806.67-24.41Q806.77-24.27 807.75-24.17 808.72-24.07 810.14-24 811.56-23.93 813.24-23.9 814.93-23.88 816.46-23.85 818-23.83 819.2-23.78 820.39-23.73 820.88-23.68L820.88-23.68Q822.74-23.44 823.84-22.61 824.93-21.78 825.52-20.53 826.11-19.29 826.28-17.72 826.45-16.16 826.45-14.55L826.45-14.55Q826.45-13.77 826.33-12.7 826.2-11.62 825.96-10.55 825.72-9.47 825.25-8.54 824.79-7.62 824.15-7.08L824.15-7.08Q823.42-6.49 821.79-6.1 820.15-5.71 818.27-5.47 816.39-5.22 814.63-5.13 812.87-5.03 811.95-5.03L811.95-5.03Q808.72-5.03 805.5-5.4 802.28-5.76 799.1-6.2L799.1-6.2 799.1-15.53Q802.18-14.89 805.28-14.79 808.38-14.7 811.51-14.45L811.51-14.45Q812.14-14.4 813.44-14.38 814.73-14.36 816.05-14.43 817.37-14.5 818.44-14.75 819.52-14.99 819.76-15.43L819.76-15.43Q819.86-15.58 819.86-15.77 819.86-15.97 819.86-16.11L819.86-16.11Q819.86-16.5 819.78-17.11 819.71-17.72 819.47-18.07L819.47-18.07Q819.42-18.12 819.12-18.14 818.83-18.16 818.78-18.16L818.78-18.16Q816.05-18.31 813.31-18.33 810.58-18.36 807.8-18.6L807.8-18.6Q806.67-18.7 805.53-18.82 804.38-18.95 803.26-19.19L803.26-19.19Q802.33-19.38 801.57-19.63 800.81-19.87 800.25-20.26 799.69-20.65 799.3-21.26 798.91-21.88 798.76-22.9L798.76-22.9Q798.67-23.24 798.67-23.56 798.67-23.88 798.67-24.27L798.67-24.27Q798.67-25.15 798.76-26.27 798.86-27.39 799.13-28.52 799.4-29.64 799.81-30.64 800.23-31.64 800.91-32.28L800.91-32.28Q801.35-32.71 802.47-33.01 803.6-33.3 805.06-33.52 806.53-33.74 808.19-33.89 809.85-34.03 811.39-34.11 812.92-34.18 814.17-34.2 815.41-34.23 816.05-34.23L816.05-34.23Q818.78-34.23 821.44-34.13 824.1-34.03 826.74-33.89ZM887.38-19.34L887.38-19.34Q887.38-18.95 887.38-18.58 887.38-18.21 887.33-17.82L887.33-17.82Q887.28-17.14 887.09-15.58 886.89-14.01 886.55-12.33 886.21-10.64 885.72-9.23 885.23-7.81 884.65-7.42L884.65-7.42Q884.35-7.23 882.67-7.08 880.98-6.93 878.57-6.79 876.15-6.64 873.32-6.54 870.49-6.45 867.92-6.37 865.36-6.3 863.43-6.25 861.5-6.2 860.87-6.2L860.87-6.2Q860.57-6.2 859.87-6.2 859.16-6.2 858.38-6.23 857.6-6.25 856.91-6.3 856.23-6.35 855.94-6.45L855.94-6.45Q855.25-6.69 854.57-7.25 853.89-7.81 853.3-8.52 852.71-9.23 852.25-9.99 851.79-10.74 851.59-11.43L851.59-11.43Q851.44-11.96 851.35-13.06 851.25-14.16 851.2-15.36 851.15-16.55 851.13-17.68 851.1-18.8 851.1-19.38L851.1-19.38Q851.1-20.31 851.15-21.95 851.2-23.58 851.44-25.29 851.69-27 852.15-28.49 852.62-29.98 853.49-30.57L853.49-30.57Q853.89-30.81 854.96-31.01 856.03-31.2 857.5-31.35 858.96-31.49 860.62-31.57 862.28-31.64 863.87-31.67 865.46-31.69 866.82-31.69 868.19-31.69 869.02-31.64L869.02-31.64Q869.75-31.59 871.12-31.57 872.49-31.54 874.17-31.49 875.86-31.45 877.66-31.32 879.47-31.2 881.03-31.01 882.6-30.81 883.79-30.49 884.99-30.18 885.38-29.74L885.38-29.74Q886.01-29.05 886.4-27.69 886.8-26.32 887.01-24.78 887.23-23.24 887.31-21.75 887.38-20.26 887.38-19.34ZM877.03-18.31L877.03-18.31Q877.03-18.9 876.98-19.68 876.93-20.46 876.83-21.26 876.74-22.07 876.54-22.83 876.35-23.58 876.05-24.07L876.05-24.07Q875.66-24.71 874.54-25.05 873.42-25.39 872.07-25.56 870.73-25.73 869.44-25.78 868.14-25.83 867.51-25.83L867.51-25.83Q867.17-25.83 866.29-25.81 865.41-25.78 864.46-25.73 863.5-25.68 862.67-25.56 861.84-25.44 861.6-25.29L861.6-25.29Q861.16-25 860.92-24.39 860.67-23.78 860.55-23.05 860.43-22.31 860.4-21.61 860.38-20.9 860.38-20.46L860.38-20.46Q860.38-20.02 860.45-18.87 860.53-17.72 860.65-16.43 860.77-15.14 860.97-14.06 861.16-12.99 861.45-12.7L861.45-12.7Q861.8-12.3 862.75-12.06 863.7-11.82 864.8-11.65 865.9-11.47 866.92-11.4 867.95-11.33 868.39-11.33L868.39-11.33Q869.17-11.33 870.24-11.38 871.32-11.43 872.42-11.62 873.51-11.82 874.49-12.16 875.47-12.5 876.05-13.09L876.05-13.09Q876.39-13.43 876.59-14.11 876.79-14.79 876.88-15.58 876.98-16.36 877.01-17.11 877.03-17.87 877.03-18.31ZM912.87-34.62L912.87-34.62Q912.87-33.2 912.74-31.86 912.62-30.52 912.43-29.1L912.43-29.1Q912.18-29.15 911.65-29.15L911.65-29.15Q910.96-29.15 910.11-29.05 909.25-28.96 908.4-28.74 907.54-28.52 906.76-28.15 905.98-27.78 905.49-27.25L905.49-27.25Q904.96-26.61 904.44-25.68 903.93-24.76 903.93-23.88L903.93-23.88Q903.93-23.49 903.98-23.29L903.98-23.29 909.45-23.05Q909.55-22.27 909.64-21.44 909.74-20.61 909.74-19.82L909.74-19.82Q909.74-19.04 909.69-18.31 909.64-17.58 909.6-16.85L909.6-16.85 904.86-15.87Q905.25-11.67 905.69-7.54 906.13-3.42 906.37 0.78L906.37 0.78Q905.79 0.78 905.2 0.76 904.61 0.73 904.08 0.73L904.08 0.73Q901.54 0.73 899.07 0.9 896.61 1.07 894.12 1.12L894.12 1.12 894.56-15.04 890.89-14.84 890.89-16.16Q890.89-17.87 891.09-19.53 891.28-21.19 891.38-22.9L891.38-22.9Q892.95-22.95 893.68-23.02 894.41-23.1 894.65-23.19L894.65-23.19Q894.95-23.29 894.85-23.44L894.85-23.44Q894.95-25.1 895.14-26.61L895.14-26.61Q895.29-27.88 895.53-29.2 895.78-30.52 896.17-31.25L896.17-31.25Q897.39-33.59 899.02-34.84 900.66-36.08 902.59-36.65 904.52-37.21 906.69-37.28 908.86-37.35 911.21-37.35L911.21-37.35Q911.6-37.35 911.96-37.35 912.33-37.35 912.72-37.3L912.72-37.3Q912.87-35.89 912.87-34.62ZM964.42-28.42L964.42-28.42 964.42-25 955-24.51Q954.81-21.68 954.71-18.9 954.61-16.11 954.61-13.33L954.61-13.33Q954.61-9.91 954.44-6.52 954.27-3.13 954.02 0.24L954.02 0.24Q952.27 0.34 950.51 0.42 948.75 0.49 946.99 0.49L946.99 0.49Q946.36 0.49 945.75 0.46 945.14 0.44 944.55 0.44L944.55 0.44Q944.65-2.54 944.72-5.49 944.8-8.45 944.8-11.38L944.8-11.38Q944.8-14.31 944.65-17.26 944.5-20.21 944.31-23.19L944.31-23.19Q942.89-23.14 941.45-23.1 940.01-23.05 938.55-23.05L938.55-23.05Q937.72-23.05 936.91-23.05 936.1-23.05 935.27-23.1L935.27-23.1Q935.13-26.71 935.08-30.27 935.03-33.84 934.98-37.4L934.98-37.4Q942.31-37.26 949.53-36.99 956.76-36.72 964.03-36.52L964.03-36.52Q964.23-34.42 964.33-32.45 964.42-30.47 964.42-28.42ZM1002.12-18.12L1002.12-18.12Q995.72-17.77 989.37-17.55 983.03-17.33 976.63-17.09L976.63-17.09Q976.58-16.89 976.58-16.7 976.58-16.5 976.58-16.31L976.58-16.31Q976.58-14.65 977.34-13.77 978.09-12.89 979.22-12.52 980.34-12.16 981.71-12.11 983.07-12.06 984.25-12.06L984.25-12.06Q987.52-12.06 990.79-12.28 994.06-12.5 997.38-12.74L997.38-12.74 997.77-4.98Q994.55-4.83 991.35-4.74 988.15-4.64 984.93-4.64L984.93-4.64Q984.25-4.64 982.42-4.66 980.58-4.69 978.51-4.81 976.43-4.93 974.63-5.13 972.82-5.32 972.23-5.66L972.23-5.66Q970.72-6.54 969.87-7.91 969.01-9.28 968.55-10.89 968.08-12.5 967.91-14.18 967.74-15.87 967.69-17.43L967.69-17.43Q967.64-17.68 967.67-17.94 967.69-18.21 967.69-18.46L967.69-18.46Q967.69-21.04 968.25-23.27 968.82-25.49 970.33-27.59L970.33-27.59Q971.36-29.05 973.36-30.03 975.36-31.01 977.7-31.57 980.05-32.13 982.39-32.35 984.73-32.57 986.44-32.57L986.44-32.57Q987.96-32.57 990.15-32.3 992.35-32.03 994.52-31.4 996.7-30.76 998.46-29.76 1000.21-28.76 1000.85-27.29L1000.85-27.29Q1000.95-27 1001.07-26.29 1001.19-25.59 1001.34-24.68 1001.48-23.78 1001.6-22.75 1001.73-21.73 1001.82-20.8 1001.92-19.87 1002-19.14 1002.07-18.41 1002.12-18.12ZM979.17-21.14L995.48-21.68Q995.18-23.83 994.38-25.07 993.57-26.32 992.38-26.93 991.18-27.54 989.64-27.71 988.1-27.88 986.35-27.88L986.35-27.88Q985.76-27.88 984.88-27.86 984-27.83 983.12-27.71 982.24-27.59 981.46-27.34 980.68-27.1 980.24-26.66L980.24-26.66Q979.9-26.37 979.68-25.85 979.46-25.34 979.31-24.76 979.17-24.17 979.09-23.61 979.02-23.05 979.02-22.66L979.02-22.66Q979.02-21.88 979.17-21.14L979.17-21.14ZM1037.37-25.73L1037.37-25.73Q1037.37-23.49 1036.78-21.39L1036.78-21.39Q1036.44-21.34 1034.76-21.26 1033.07-21.19 1030.75-21.07 1028.43-20.95 1025.77-20.78 1023.11-20.61 1020.84-20.41 1018.57-20.21 1016.98-20 1015.4-19.78 1015.2-19.58L1015.2-19.58Q1014.42-18.9 1014.03-17.92 1013.64-16.94 1013.64-15.97L1013.64-15.97Q1013.64-15.38 1013.76-15.06 1013.88-14.75 1014.18-14.36L1014.18-14.36Q1014.32-14.21 1015.2-14.11 1016.08-14.01 1017.15-13.96 1018.23-13.92 1019.16-13.89 1020.08-13.87 1020.23-13.87L1020.23-13.87Q1023.75-13.87 1027.26-14.01 1030.78-14.16 1034.29-14.4L1034.29-14.4 1034.68-6.01Q1029.8-5.62 1024.89-5.25 1019.99-4.88 1015.05-4.88L1015.05-4.88Q1014.81-4.88 1014.35-4.88 1013.88-4.88 1013.35-4.91 1012.81-4.93 1012.32-4.98 1011.83-5.03 1011.64-5.08L1011.64-5.08Q1010.61-5.37 1009.61-5.74 1008.61-6.1 1007.73-6.67 1006.85-7.23 1006.19-8.01 1005.53-8.79 1005.24-9.91L1005.24-9.91Q1005.04-10.64 1004.92-11.84 1004.8-13.04 1004.75-14.31 1004.7-15.58 1004.68-16.8 1004.65-18.02 1004.65-18.85L1004.65-18.85Q1004.65-20.75 1004.7-22.41 1004.75-24.07 1005.24-25.46 1005.73-26.86 1006.83-27.95 1007.93-29.05 1009.98-29.88L1009.98-29.88Q1010.9-30.27 1012.76-30.49 1014.61-30.71 1016.64-30.83 1018.67-30.96 1020.52-31.01 1022.38-31.05 1023.4-31.05L1023.4-31.05Q1026.82-31.05 1030.22-30.91 1033.61-30.76 1037.03-30.52L1037.03-30.52Q1037.17-29.3 1037.27-28.1 1037.37-26.9 1037.37-25.73ZM1073.94-19.04L1073.94-19.04Q1073.94-17.24 1073.72-15.41 1073.5-13.57 1073.25-11.77L1073.25-11.77Q1072.86-8.59 1072.38-5.49 1071.89-2.39 1071.4 0.78L1071.4 0.78Q1069.01 0.83 1066.71 0.98 1064.42 1.12 1062.07 1.32L1062.07 1.32Q1062.07-2.25 1062.07-5.74 1062.07-9.23 1061.93-12.74L1061.93-12.74Q1061.93-13.43 1061.9-14.5 1061.88-15.58 1061.68-16.26L1061.68-16.26Q1061.39-17.38 1060.95-17.8 1060.51-18.21 1059.24-18.21L1059.24-18.21Q1058.36-18.21 1057.19-18.02 1056.02-17.82 1054.8-17.53 1053.58-17.24 1052.48-16.87 1051.38-16.5 1050.65-16.11L1050.65-16.11Q1050.26-12.16 1049.7-8.25 1049.13-4.35 1048.99-0.34L1048.99-0.34 1042.1-0.68Q1041.57-9.47 1041.08-18.19 1040.59-26.9 1040.15-35.69L1040.15-35.69 1050.89-36.38Q1050.79-33.15 1050.7-29.96 1050.6-26.76 1050.5-23.54L1050.5-23.54Q1051.43-24.32 1052.6-24.73 1053.77-25.15 1055.02-25.29 1056.26-25.44 1057.53-25.44 1058.8-25.44 1059.97-25.44L1059.97-25.44Q1061.73-25.44 1063.95-25.32 1066.17-25.2 1068.2-24.63 1070.23-24.07 1071.79-22.85 1073.35-21.63 1073.89-19.43L1073.89-19.43Q1073.94-19.34 1073.94-19.24 1073.94-19.14 1073.94-19.04ZM1088.05-0.1L1088.05-0.1Q1088.05 1.61 1087.39 3.17 1086.73 4.74 1085.9 6.2L1085.9 6.2 1080.53 6.2Q1081.55 5.03 1082.53 3.76 1083.51 2.49 1083.51 0.78L1083.51 0.78 1083.51 0.24 1078.87 0.15Q1078.57-0.54 1078.26-1.68 1077.94-2.83 1077.94-3.56L1077.94-3.56Q1077.94-4.54 1078.43-5.57 1078.92-6.59 1079.6-7.37L1079.6-7.37 1086.92-6.74Q1088.05-3.47 1088.05-0.1ZM1140.19-36.23L1140.73-29.74Q1135.94-29.49 1131.23-29.22 1126.52-28.96 1121.73-28.56L1121.73-28.56 1121.64-24.71 1134.23-25.44Q1134.48-23.78 1134.6-22.17 1134.72-20.56 1134.72-18.9L1134.72-18.9Q1134.72-18.21 1134.7-17.48 1134.67-16.75 1134.67-16.06L1134.67-16.06 1122.95-13.96 1123.69-7.91Q1127.4-8.15 1131.08-8.62 1134.77-9.08 1138.53-9.42L1138.53-9.42Q1138.87-6.98 1139.21-4.52 1139.56-2.05 1140.19 0.29L1140.19 0.29Q1133.26 0.24 1126.42 0.32 1119.59 0.39 1112.65 0.39L1112.65 0.39Q1112.8-5.32 1112.99-10.99 1113.19-16.65 1113.19-22.41L1113.19-22.41 1113.19-23.34Q1113.19-26.66 1113.09-29.96 1112.99-33.25 1112.9-36.62L1112.9-36.62Q1116.75-36.57 1120.59-36.6 1124.42-36.62 1128.33-36.62L1128.33-36.62Q1131.3-36.62 1134.26-36.5 1137.21-36.38 1140.19-36.23L1140.19-36.23ZM1171.29-33.89L1171.29-33.89 1171-27.54Q1169.49-27.64 1167.97-27.69 1166.46-27.73 1164.94-27.73L1164.94-27.73Q1164.31-27.73 1163.14-27.71 1161.97-27.69 1160.53-27.64 1159.08-27.59 1157.57-27.49 1156.06-27.39 1154.79-27.29 1153.52-27.2 1152.64-27.05 1151.76-26.9 1151.57-26.76L1151.57-26.76Q1150.93-26.12 1150.93-25.29L1150.93-25.29Q1150.93-24.76 1151.22-24.41L1151.22-24.41Q1151.32-24.27 1152.3-24.17 1153.27-24.07 1154.69-24 1156.11-23.93 1157.79-23.9 1159.48-23.88 1161.01-23.85 1162.55-23.83 1163.75-23.78 1164.94-23.73 1165.43-23.68L1165.43-23.68Q1167.29-23.44 1168.39-22.61 1169.49-21.78 1170.07-20.53 1170.66-19.29 1170.83-17.72 1171-16.16 1171-14.55L1171-14.55Q1171-13.77 1170.88-12.7 1170.75-11.62 1170.51-10.55 1170.27-9.47 1169.8-8.54 1169.34-7.62 1168.7-7.08L1168.7-7.08Q1167.97-6.49 1166.34-6.1 1164.7-5.71 1162.82-5.47 1160.94-5.22 1159.18-5.13 1157.42-5.03 1156.5-5.03L1156.5-5.03Q1153.27-5.03 1150.05-5.4 1146.83-5.76 1143.65-6.2L1143.65-6.2 1143.65-15.53Q1146.73-14.89 1149.83-14.79 1152.93-14.7 1156.06-14.45L1156.06-14.45Q1156.69-14.4 1157.99-14.38 1159.28-14.36 1160.6-14.43 1161.92-14.5 1162.99-14.75 1164.07-14.99 1164.31-15.43L1164.31-15.43Q1164.41-15.58 1164.41-15.77 1164.41-15.97 1164.41-16.11L1164.41-16.11Q1164.41-16.5 1164.33-17.11 1164.26-17.72 1164.02-18.07L1164.02-18.07Q1163.97-18.12 1163.67-18.14 1163.38-18.16 1163.33-18.16L1163.33-18.16Q1160.6-18.31 1157.86-18.33 1155.13-18.36 1152.35-18.6L1152.35-18.6Q1151.22-18.7 1150.08-18.82 1148.93-18.95 1147.81-19.19L1147.81-19.19Q1146.88-19.38 1146.12-19.63 1145.36-19.87 1144.8-20.26 1144.24-20.65 1143.85-21.26 1143.46-21.88 1143.31-22.9L1143.31-22.9Q1143.22-23.24 1143.22-23.56 1143.22-23.88 1143.22-24.27L1143.22-24.27Q1143.22-25.15 1143.31-26.27 1143.41-27.39 1143.68-28.52 1143.95-29.64 1144.36-30.64 1144.78-31.64 1145.46-32.28L1145.46-32.28Q1145.9-32.71 1147.02-33.01 1148.15-33.3 1149.61-33.52 1151.08-33.74 1152.74-33.89 1154.4-34.03 1155.94-34.11 1157.47-34.18 1158.72-34.2 1159.96-34.23 1160.6-34.23L1160.6-34.23Q1163.33-34.23 1165.99-34.13 1168.65-34.03 1171.29-33.89ZM1210.6-16.65L1210.6-16.65Q1210.6-15.97 1210.57-15.16 1210.55-14.36 1210.42-13.53 1210.3-12.7 1210.08-11.94 1209.86-11.18 1209.47-10.6L1209.47-10.6Q1208.64-9.38 1207.91-8.52 1207.18-7.67 1206.32-7.1 1205.47-6.54 1204.39-6.2 1203.32-5.86 1201.86-5.66L1201.86-5.66Q1199.66-5.32 1197.51-5.05 1195.36-4.79 1193.16-4.79L1193.16-4.79Q1192.19-4.79 1191.16-4.88 1190.14-4.98 1189.26-5.52L1189.26-5.52Q1188.77-5.76 1188.21-6.18 1187.65-6.59 1187.11-7.06 1186.57-7.52 1186.06-7.98 1185.55-8.45 1185.16-8.79L1185.16-8.79 1184.86 3.47Q1183.5 3.56 1182.13 3.54 1180.76 3.52 1179.35 3.52L1179.35 3.52Q1178.52 3.52 1177.76 3.54 1177 3.56 1176.17 3.61L1176.17 3.61Q1176.37-0.59 1176.54-4.76 1176.71-8.94 1176.71-13.09L1176.71-13.09 1176.71-13.67Q1176.71-18.31 1176.46-22.9 1176.22-27.49 1176.03-32.13L1176.03-32.13Q1178.47-32.32 1180.86-32.47 1183.25-32.62 1185.69-32.81L1185.69-32.81 1186.04-30.22Q1189.4-30.62 1192.8-30.88 1196.19-31.15 1199.61-31.15L1199.61-31.15Q1200.05-31.15 1200.56-31.18 1201.07-31.2 1201.51-31.1L1201.51-31.1Q1202.69-30.86 1203.91-30.49 1205.13-30.13 1206.2-29.54 1207.28-28.96 1208.11-28.05 1208.94-27.15 1209.38-25.88L1209.38-25.88Q1209.67-24.9 1209.91-23.73 1210.16-22.56 1210.3-21.31 1210.45-20.07 1210.52-18.87 1210.6-17.68 1210.6-16.65ZM1200.98-17.53L1200.98-17.53Q1200.98-18.12 1200.88-18.8 1200.78-19.48 1200.39-19.92L1200.39-19.92Q1199.41-21.04 1197.95-21.66 1196.48-22.27 1195.07-22.27L1195.07-22.27Q1193.9-22.27 1192.53-22.05 1191.16-21.83 1189.8-21.46 1188.43-21.09 1187.11-20.63 1185.79-20.17 1184.72-19.73L1184.72-19.73 1185.16-13.18Q1186.96-12.65 1189.04-12.21 1191.11-11.77 1192.97-11.77L1192.97-11.77Q1193.46-11.77 1194.48-11.74 1195.51-11.72 1196.61-11.79 1197.71-11.87 1198.66-12.01 1199.61-12.16 1199.9-12.55L1199.9-12.55Q1200.15-12.84 1200.34-13.5 1200.54-14.16 1200.68-14.92 1200.83-15.67 1200.9-16.38 1200.98-17.09 1200.98-17.53ZM1251.12-19.34L1251.12-19.34Q1251.12-18.95 1251.12-18.58 1251.12-18.21 1251.07-17.82L1251.07-17.82Q1251.02-17.14 1250.83-15.58 1250.63-14.01 1250.29-12.33 1249.95-10.64 1249.46-9.23 1248.97-7.81 1248.39-7.42L1248.39-7.42Q1248.09-7.23 1246.41-7.08 1244.72-6.93 1242.31-6.79 1239.89-6.64 1237.06-6.54 1234.23-6.45 1231.66-6.37 1229.1-6.3 1227.17-6.25 1225.24-6.2 1224.61-6.2L1224.61-6.2Q1224.31-6.2 1223.61-6.2 1222.9-6.2 1222.12-6.23 1221.34-6.25 1220.65-6.3 1219.97-6.35 1219.68-6.45L1219.68-6.45Q1218.99-6.69 1218.31-7.25 1217.62-7.81 1217.04-8.52 1216.45-9.23 1215.99-9.99 1215.52-10.74 1215.33-11.43L1215.33-11.43Q1215.18-11.96 1215.09-13.06 1214.99-14.16 1214.94-15.36 1214.89-16.55 1214.87-17.68 1214.84-18.8 1214.84-19.38L1214.84-19.38Q1214.84-20.31 1214.89-21.95 1214.94-23.58 1215.18-25.29 1215.43-27 1215.89-28.49 1216.36-29.98 1217.23-30.57L1217.23-30.57Q1217.62-30.81 1218.7-31.01 1219.77-31.2 1221.24-31.35 1222.7-31.49 1224.36-31.57 1226.02-31.64 1227.61-31.67 1229.2-31.69 1230.56-31.69 1231.93-31.69 1232.76-31.64L1232.76-31.64Q1233.49-31.59 1234.86-31.57 1236.23-31.54 1237.91-31.49 1239.6-31.45 1241.4-31.32 1243.21-31.2 1244.77-31.01 1246.34-30.81 1247.53-30.49 1248.73-30.18 1249.12-29.74L1249.12-29.74Q1249.75-29.05 1250.14-27.69 1250.53-26.32 1250.75-24.78 1250.97-23.24 1251.05-21.75 1251.12-20.26 1251.12-19.34ZM1240.77-18.31L1240.77-18.31Q1240.77-18.9 1240.72-19.68 1240.67-20.46 1240.57-21.26 1240.48-22.07 1240.28-22.83 1240.09-23.58 1239.79-24.07L1239.79-24.07Q1239.4-24.71 1238.28-25.05 1237.16-25.39 1235.81-25.56 1234.47-25.73 1233.18-25.78 1231.88-25.83 1231.25-25.83L1231.25-25.83Q1230.91-25.83 1230.03-25.81 1229.15-25.78 1228.2-25.73 1227.24-25.68 1226.41-25.56 1225.58-25.44 1225.34-25.29L1225.34-25.29Q1224.9-25 1224.66-24.39 1224.41-23.78 1224.29-23.05 1224.17-22.31 1224.14-21.61 1224.12-20.9 1224.12-20.46L1224.12-20.46Q1224.12-20.02 1224.19-18.87 1224.27-17.72 1224.39-16.43 1224.51-15.14 1224.7-14.06 1224.9-12.99 1225.19-12.7L1225.19-12.7Q1225.53-12.3 1226.49-12.06 1227.44-11.82 1228.54-11.65 1229.64-11.47 1230.66-11.4 1231.69-11.33 1232.13-11.33L1232.13-11.33Q1232.91-11.33 1233.98-11.38 1235.06-11.43 1236.15-11.62 1237.25-11.82 1238.23-12.16 1239.21-12.5 1239.79-13.09L1239.79-13.09Q1240.13-13.43 1240.33-14.11 1240.52-14.79 1240.62-15.58 1240.72-16.36 1240.74-17.11 1240.77-17.87 1240.77-18.31ZM1284.42-20.61L1284.42-20.61 1284.42-19.48 1275-19.04Q1275.14-19.68 1275.14-20.51L1275.14-20.51Q1275.14-21.73 1274.8-22.09 1274.46-22.46 1273.29-22.46L1273.29-22.46Q1271.63-22.46 1269.62-21.88 1267.62-21.29 1266.11-20.75L1266.11-20.75Q1265.86-18.6 1265.72-16.46 1265.57-14.31 1265.57-12.16L1265.57-12.16Q1265.57-9.77 1265.6-7.4 1265.62-5.03 1265.67-2.64L1265.67-2.64 1257.27-2.1Q1257.03-5.22 1256.78-8.33 1256.54-11.43 1256.34-14.55L1256.34-14.55Q1256.1-18.7 1255.71-22.83 1255.32-26.95 1254.93-31.15L1254.93-31.15Q1257.71-30.96 1260.47-30.59 1263.23-30.22 1266.01-29.69L1266.01-29.69 1265.77-25.59Q1267.23-26.76 1268.57-27.61 1269.92-28.47 1271.31-29.05 1272.7-29.64 1274.26-29.91 1275.83-30.18 1277.73-30.18L1277.73-30.18Q1279-30.18 1280.37-29.91 1281.73-29.64 1282.71-28.66L1282.71-28.66Q1283.2-28.13 1283.54-27.05 1283.88-25.98 1284.08-24.78 1284.27-23.58 1284.35-22.44 1284.42-21.29 1284.42-20.61ZM1310.93-8.64L1310.93-8.64 1310.1-0.05Q1308.54 0.05 1306.98 0.12 1305.41 0.2 1303.85 0.2L1303.85 0.2Q1303.02 0.2 1301.65 0.15 1300.29 0.1 1298.82-0.02 1297.36-0.15 1296.04-0.37 1294.72-0.59 1293.94-0.93L1293.94-0.93Q1292.77-1.46 1292.01-2.34 1291.25-3.22 1290.76-4.27 1290.28-5.32 1289.98-6.52 1289.69-7.71 1289.54-8.89L1289.54-8.89Q1289.4-10.01 1289.32-11.3 1289.25-12.6 1289.23-13.96 1289.2-15.33 1289.2-16.63 1289.2-17.92 1289.2-19.04L1289.2-19.04 1289.2-20.51 1286.17-20.51Q1286.37-22.71 1286.39-24.85 1286.42-27 1286.61-29.2L1286.61-29.2 1289.54-29.1 1289.54-36.33Q1292.33-35.79 1295.09-35.77 1297.84-35.74 1300.63-35.55L1300.63-35.55 1300.53-28.08 1304.63-27.83Q1304.63-27.49 1304.66-27.2 1304.68-26.9 1304.68-26.56L1304.68-26.56Q1304.68-25.2 1304.46-23.9 1304.24-22.61 1303.9-21.29L1303.9-21.29 1300.33-21.29Q1300.24-19.04 1300.19-16.8 1300.14-14.55 1300.14-12.3L1300.14-12.3Q1300.14-11.23 1300.21-10.38 1300.29-9.52 1300.6-8.94 1300.92-8.35 1301.65-8.06 1302.39-7.76 1303.7-7.76L1303.7-7.76Q1305.51-7.76 1307.32-8.01 1309.12-8.25 1310.93-8.64ZM1338.27-33.89L1338.27-33.89 1337.98-27.54Q1336.46-27.64 1334.95-27.69 1333.44-27.73 1331.92-27.73L1331.92-27.73Q1331.29-27.73 1330.12-27.71 1328.95-27.69 1327.5-27.64 1326.06-27.59 1324.55-27.49 1323.04-27.39 1321.77-27.29 1320.5-27.2 1319.62-27.05 1318.74-26.9 1318.54-26.76L1318.54-26.76Q1317.91-26.12 1317.91-25.29L1317.91-25.29Q1317.91-24.76 1318.2-24.41L1318.2-24.41Q1318.3-24.27 1319.28-24.17 1320.25-24.07 1321.67-24 1323.09-23.93 1324.77-23.9 1326.45-23.88 1327.99-23.85 1329.53-23.83 1330.73-23.78 1331.92-23.73 1332.41-23.68L1332.41-23.68Q1334.27-23.44 1335.37-22.61 1336.46-21.78 1337.05-20.53 1337.64-19.29 1337.81-17.72 1337.98-16.16 1337.98-14.55L1337.98-14.55Q1337.98-13.77 1337.86-12.7 1337.73-11.62 1337.49-10.55 1337.25-9.47 1336.78-8.54 1336.32-7.62 1335.68-7.08L1335.68-7.08Q1334.95-6.49 1333.32-6.1 1331.68-5.71 1329.8-5.47 1327.92-5.22 1326.16-5.13 1324.4-5.03 1323.48-5.03L1323.48-5.03Q1320.25-5.03 1317.03-5.4 1313.81-5.76 1310.63-6.2L1310.63-6.2 1310.63-15.53Q1313.71-14.89 1316.81-14.79 1319.91-14.7 1323.04-14.45L1323.04-14.45Q1323.67-14.4 1324.97-14.38 1326.26-14.36 1327.58-14.43 1328.9-14.5 1329.97-14.75 1331.04-14.99 1331.29-15.43L1331.29-15.43Q1331.39-15.58 1331.39-15.77 1331.39-15.97 1331.39-16.11L1331.39-16.11Q1331.39-16.5 1331.31-17.11 1331.24-17.72 1331-18.07L1331-18.07Q1330.95-18.12 1330.65-18.14 1330.36-18.16 1330.31-18.16L1330.31-18.16Q1327.58-18.31 1324.84-18.33 1322.11-18.36 1319.33-18.6L1319.33-18.6Q1318.2-18.7 1317.06-18.82 1315.91-18.95 1314.79-19.19L1314.79-19.19Q1313.86-19.38 1313.1-19.63 1312.34-19.87 1311.78-20.26 1311.22-20.65 1310.83-21.26 1310.44-21.88 1310.29-22.9L1310.29-22.9Q1310.2-23.24 1310.2-23.56 1310.2-23.88 1310.2-24.27L1310.2-24.27Q1310.2-25.15 1310.29-26.27 1310.39-27.39 1310.66-28.52 1310.93-29.64 1311.34-30.64 1311.76-31.64 1312.44-32.28L1312.44-32.28Q1312.88-32.71 1314-33.01 1315.13-33.3 1316.59-33.52 1318.06-33.74 1319.72-33.89 1321.38-34.03 1322.91-34.11 1324.45-34.18 1325.7-34.2 1326.94-34.23 1327.58-34.23L1327.58-34.23Q1330.31-34.23 1332.97-34.13 1335.63-34.03 1338.27-33.89Z" opacity="1" transform="matrix(1,0,0,1,0,0)" fill="#ffffff" class="slogan-text-1" data-fill-palette-color="quaternary" id="text-1"></path></svg></g></svg></g></svg></g></svg></g><g></g></svg></g><defs></defs></svg><rect width="395.52" height="96.33158948386145" fill="none" stroke="none" visibility="hidden"></rect></g></svg></g></svg>