<svg xmlns="http://www.w3.org/2000/svg" version="1.1" xmlns:xlink="http://www.w3.org/1999/xlink" xmlns:svgjs="http://svgjs.dev/svgjs" width="1000" height="1000" viewBox="0 0 1000 1000"><rect width="1000" height="1000" fill="#292222"></rect><g transform="matrix(0.7,0,0,0.7,149.57575768160302,414.18398973513)"><svg viewBox="0 0 396 97" data-background-color="#292222" preserveAspectRatio="xMidYMid meet" height="244" width="1000" xmlns="http://www.w3.org/2000/svg" xmlns:xlink="http://www.w3.org/1999/xlink"><g id="tight-bounds" transform="matrix(1,0,0,1,0.2400000598782981,0.23625971494254827)"><svg viewBox="0 0 395.52 96.52705522205102" height="96.52705522205102" width="395.52"><g><svg viewBox="0 0 395.52 96.52705522205102" height="96.52705522205102" width="395.52"><g><svg viewBox="0 0 395.52 96.52705522205102" height="96.52705522205102" width="395.52"><g id="textblocktransform"><svg viewBox="0 0 395.52 96.52705522205102" height="96.52705522205102" width="395.52" id="textblock"><g><svg viewBox="0 0 395.52 45.327847619047624" height="45.327847619047624" width="395.52"><g transform="matrix(1,0,0,1,0,0)"><svg width="395.52" viewBox="3.6500000953674316 -35.79999923706055 314.9700012207031 36.099998474121094" height="45.327847619047624" data-palette-color="#636365"><path d="M23.95-19.2L23.95-33.7 29.1-33.7 29.1 0 23.95 0 23.95-14.75 8.8-14.75 8.8 0 3.65 0 3.65-33.7 8.8-33.7 8.8-19.2 23.95-19.2ZM52-11.55L52-25.35 56.9-25.35 56.9 0 52 0 52-4.35Q50 0.3 44.1 0.3L44.1 0.3Q40.35 0.3 38.15-1.93 35.95-4.15 35.95-8.05L35.95-8.05 35.95-25.35 40.9-25.35 40.9-9.25Q40.9-6.65 42.17-5.28 43.45-3.9 45.7-3.9L45.7-3.9Q48.55-3.9 50.27-5.9 52-7.9 52-11.55L52-11.55ZM62.95-25.35L80.6-25.35 80.6-21.85 68.15-4.15 81.25-4.15 81.25 0 62.5 0 62.5-3.75 74.8-21.25 62.95-21.25 62.95-25.35ZM90.34-14.5L102.59-14.5 102.59-15.4Q102.49-18.25 101.04-19.93 99.59-21.6 96.89-21.6L96.89-21.6Q94.39-21.6 92.59-19.78 90.79-17.95 90.34-14.5L90.34-14.5ZM105.74-5.75L105.74-5.75 105.74-1.35Q102.94 0.25 98.34 0.25L98.34 0.25Q92.44 0.25 88.94-3.3 85.44-6.85 85.44-12.6L85.44-12.6Q85.44-18.7 88.64-22.18 91.84-25.65 96.79-25.65L96.79-25.65Q101.64-25.65 104.49-22.63 107.34-19.6 107.34-13.9L107.34-13.9Q107.34-12.35 107.04-10.65L107.04-10.65 90.39-10.65Q90.89-7.35 93.19-5.6 95.49-3.85 98.99-3.85L98.99-3.85Q103.04-3.85 105.74-5.75ZM126.14-35.4L126.14-35.4 126.14-31.1Q124.99-31.6 123.74-31.6L123.74-31.6Q120.09-31.6 120.09-27.25L120.09-27.25 120.09-25.35 125.44-25.35 125.44-21.55 120.09-21.55 120.09 0 115.19 0 115.19-21.55 111.14-21.55 111.14-25.35 115.19-25.35 115.19-27.3Q115.19-31.25 117.32-33.52 119.44-35.8 123.29-35.8L123.29-35.8Q124.69-35.8 126.14-35.4ZM143.14-8.45L143.14-11.3 139.34-11.3Q136.54-11.3 135.11-10.2 133.69-9.1 133.69-7.4L133.69-7.4Q133.69-5.65 134.79-4.65 135.89-3.65 137.99-3.65L137.99-3.65Q140.39-3.65 141.76-4.98 143.14-6.3 143.14-8.45L143.14-8.45ZM130.39-19.3L130.39-19.3 130.39-24.05Q133.34-25.75 138.19-25.75L138.19-25.75Q148.14-25.75 148.14-16.1L148.14-16.1 148.14 0 143.29 0 143.29-3Q141.34 0.2 136.44 0.2L136.44 0.2Q132.84 0.2 130.66-1.88 128.49-3.95 128.49-7.15L128.49-7.15Q128.49-10.8 131.24-12.83 133.99-14.85 138.94-14.85L138.94-14.85 143.14-14.85 143.14-16.3Q143.14-18.9 141.89-20.23 140.64-21.55 137.74-21.55L137.74-21.55Q133.69-21.55 130.39-19.3ZM157.69-21.85L153.44-21.85 153.44-34.05 157.69-34.05 157.69-21.85ZM177.73-24.5L177.73-24.5 177.73-20.05Q175.28-21.5 171.43-21.5L171.43-21.5Q169.68-21.5 168.66-20.7 167.63-19.9 167.63-18.6L167.63-18.6Q167.63-18.25 167.71-17.93 167.78-17.6 167.98-17.28 168.18-16.95 168.36-16.73 168.53-16.5 168.93-16.25 169.33-16 169.56-15.83 169.78-15.65 170.31-15.4 170.83-15.15 171.08-15.03 171.33-14.9 171.96-14.63 172.58-14.35 172.83-14.25L172.83-14.25Q175.78-12.95 177.46-11.33 179.13-9.7 179.13-7L179.13-7Q179.13-3.6 176.73-1.68 174.33 0.25 170.23 0.25L170.23 0.25Q165.73 0.25 162.73-1.25L162.73-1.25 162.73-5.9Q166.23-3.75 169.98-3.75L169.98-3.75Q171.93-3.75 173.01-4.55 174.08-5.35 174.08-6.65L174.08-6.65Q174.08-7.75 173.23-8.63 172.38-9.5 171.51-9.93 170.63-10.35 168.53-11.25L168.53-11.25Q162.58-13.7 162.58-18.45L162.58-18.45Q162.58-21.8 165.08-23.7 167.58-25.6 171.33-25.6L171.33-25.6Q175.43-25.6 177.73-24.5ZM204.73-14.25L204.18-12.55 214.98-12.55 214.43-14.25Q212.53-20.15 211.33-24.03 210.13-27.9 209.88-28.85L209.88-28.85 209.63-29.8Q209.08-27.45 204.73-14.25L204.73-14.25ZM224.53 0L219.03 0 216.38-8.25 202.78-8.25 200.08 0 194.63 0 206.28-33.7 213.03-33.7 224.53 0ZM229.53-25.35L234.43-25.35 234.43-20.9Q236.28-25.6 241.08-25.6L241.08-25.6Q241.78-25.6 242.63-25.45L242.63-25.45 242.63-20.65Q241.58-21.1 240.28-21.1L240.28-21.1Q237.73-21.1 236.08-18.85 234.43-16.6 234.43-13.5L234.43-13.5 234.43 0 229.53 0 229.53-25.35ZM249.97-14.5L262.22-14.5 262.22-15.4Q262.12-18.25 260.67-19.93 259.22-21.6 256.52-21.6L256.52-21.6Q254.02-21.6 252.22-19.78 250.42-17.95 249.97-14.5L249.97-14.5ZM265.37-5.75L265.37-5.75 265.37-1.35Q262.57 0.25 257.97 0.25L257.97 0.25Q252.07 0.25 248.57-3.3 245.07-6.85 245.07-12.6L245.07-12.6Q245.07-18.7 248.27-22.18 251.47-25.65 256.42-25.65L256.42-25.65Q261.27-25.65 264.12-22.63 266.97-19.6 266.97-13.9L266.97-13.9Q266.97-12.35 266.67-10.65L266.67-10.65 250.02-10.65Q250.52-7.35 252.82-5.6 255.12-3.85 258.62-3.85L258.62-3.85Q262.67-3.85 265.37-5.75ZM272.72-25.35L277.62-25.35 277.62-21Q279.87-25.7 285.52-25.7L285.52-25.7Q289.27-25.7 291.47-23.4 293.67-21.1 293.67-17.15L293.67-17.15 293.67 0 288.77 0 288.77-16Q288.77-18.65 287.45-20.05 286.12-21.45 283.92-21.45L283.92-21.45Q281.32-21.45 279.47-19.43 277.62-17.4 277.62-13.75L277.62-13.75 277.62 0 272.72 0 272.72-25.35ZM313.62-8.45L313.62-11.3 309.82-11.3Q307.02-11.3 305.59-10.2 304.17-9.1 304.17-7.4L304.17-7.4Q304.17-5.65 305.27-4.65 306.37-3.65 308.47-3.65L308.47-3.65Q310.87-3.65 312.24-4.98 313.62-6.3 313.62-8.45L313.62-8.45ZM300.87-19.3L300.87-19.3 300.87-24.05Q303.82-25.75 308.67-25.75L308.67-25.75Q318.62-25.75 318.62-16.1L318.62-16.1 318.62 0 313.77 0 313.77-3Q311.82 0.2 306.92 0.2L306.92 0.2Q303.32 0.2 301.14-1.88 298.97-3.95 298.97-7.15L298.97-7.15Q298.97-10.8 301.72-12.83 304.47-14.85 309.42-14.85L309.42-14.85 313.62-14.85 313.62-16.3Q313.62-18.9 312.37-20.23 311.12-21.55 308.22-21.55L308.22-21.55Q304.17-21.55 300.87-19.3Z" opacity="1" transform="matrix(1,0,0,1,0,0)" fill="#636365" class="wordmark-text-0" data-fill-palette-color="primary" id="text-0"></path></svg></g></svg></g><g transform="matrix(1,0,0,1,0,66.7294815280762)"><svg viewBox="0 0 395.52 29.79757369397481" height="29.79757369397481" width="395.52"><path d="M395.52 0l-4.966 14.899 4.966 14.899h-395.52l4.966-14.899-4.966-14.899z" data-fill-palette-color="tertiary" opacity="1" fill="#636365"></path><g transform="matrix(1,0,0,1,75.54432000000001,10.700816954514288)"><svg width="244.43135999999996" viewBox="3.759999990463257 -38.720001220703125 1307.699951171875 44.92000198364258" height="8.395939784946236" data-palette-color="#ffffff"><path d="M39.94-16.11L39.94-16.11Q39.94-13.33 39.82-10.6 39.7-7.86 39.31-5.08L39.31-5.08Q38.53-4.49 37.74-3.98 36.96-3.47 36.13-2.88L36.13-2.88Q35.45-2.44 34.64-1.88 33.84-1.32 32.96-0.78 32.08-0.24 31.18 0.17 30.27 0.59 29.49 0.73L29.49 0.73Q28.76 0.93 27.54 0.9 26.32 0.88 25.49 0.88L25.49 0.88Q23.44 0.98 21.39 1.03 19.34 1.07 17.19 1.07L17.19 1.07Q16.21 1.07 14.94 1.1 13.67 1.12 12.65 0.88L12.65 0.88Q12.35 0.83 11.67 0.42 10.99 0 10.13-0.61 9.28-1.22 8.35-1.93 7.42-2.64 6.57-3.3 5.71-3.96 5.1-4.47 4.49-4.98 4.25-5.18L4.25-5.18Q4-7.76 3.88-10.33 3.76-12.89 3.76-15.48L3.76-15.48Q3.76-20.51 4.13-25.44 4.49-30.37 4.93-35.35L4.93-35.35 14.99-35.6Q14.5-32.47 14.31-28.98 14.11-25.49 14.11-22.27L14.11-22.27Q14.11-21.73 14.16-20.39 14.21-19.04 14.36-17.53 14.5-16.02 14.72-14.75 14.94-13.48 15.28-13.09L15.28-13.09Q15.43-12.94 16.04-12.82 16.65-12.7 17.5-12.6 18.36-12.5 19.34-12.45 20.31-12.4 21.19-12.38 22.07-12.35 22.75-12.33 23.44-12.3 23.73-12.3L23.73-12.3Q23.97-12.3 24.56-12.3 25.15-12.3 25.76-12.33 26.37-12.35 26.9-12.4 27.44-12.45 27.64-12.6L27.64-12.6Q28.22-12.99 28.52-14.5 28.81-16.02 28.96-17.82 29.1-19.63 29.1-21.29 29.1-22.95 29.1-23.68L29.1-23.68Q29.1-24.8 29.13-25.93 29.15-27.05 29.15-28.17L29.15-28.17Q29.15-30.47 29.1-32.69 29.05-34.91 28.96-37.21L28.96-37.21Q29.98-37.11 30.98-37.08 31.98-37.06 33.01-37.06L33.01-37.06Q34.23-37.06 35.42-37.11 36.62-37.16 37.79-37.4L37.79-37.4Q38.82-32.18 39.38-26.83 39.94-21.48 39.94-16.11ZM74.46-14.5L74.46-14.5Q74.46-13.18 74.46-11.84 74.46-10.5 74.36-9.18L74.36-9.18 63.47-8.5Q63.67-11.04 63.79-13.53 63.91-16.02 63.91-18.6L63.91-18.6Q63.91-18.85 63.91-19.43 63.91-20.02 63.86-20.68 63.82-21.34 63.77-21.92 63.72-22.51 63.67-22.75L63.67-22.75Q63.43-23.44 63.16-23.93 62.89-24.41 62.52-24.71 62.16-25 61.62-25.12 61.08-25.24 60.3-25.24L60.3-25.24Q59.71-25.24 58.81-25.15 57.91-25.05 56.98-24.85 56.05-24.66 55.22-24.37 54.39-24.07 54.05-23.68L54.05-23.68 53.95-9.28Q53.85-9.47 53.39-9.47 52.93-9.47 52.73-9.47L52.73-9.47Q51.27-9.47 49.7-9.35 48.14-9.23 46.68-9.03L46.68-9.03Q46.04-14.79 45.55-20.51 45.07-26.22 44.43-31.98L44.43-31.98Q45.41-32.03 46.38-32.06 47.36-32.08 48.34-32.08L48.34-32.08Q49.61-32.08 50.9-32.01 52.19-31.93 53.46-31.88L53.46-31.88 53.81-28.13Q55.17-30.37 57.52-31.88 59.86-33.4 62.55-33.4L62.55-33.4Q63.91-33.4 65.38-33.25 66.84-33.11 68.19-32.67 69.53-32.23 70.73-31.45 71.92-30.66 72.75-29.44L72.75-29.44Q73.14-28.86 73.41-27.71 73.68-26.56 73.87-25.12 74.07-23.68 74.19-22.07 74.31-20.46 74.36-18.99 74.41-17.53 74.44-16.33 74.46-15.14 74.46-14.5ZM109.71-27.54L109.71-27.54Q107.91-24.17 106.15-21.02 104.39-17.87 102.56-14.82 100.73-11.77 98.77-8.74 96.82-5.71 94.62-2.59L94.62-2.59 86.13-2.25 76.46-27.78 87.3-28.08Q88.28-23.54 89.18-19.02 90.08-14.5 91.06-9.91L91.06-9.91Q92.91-14.21 94.65-18.46 96.38-22.71 97.8-27.2L97.8-27.2Q100.83-27.2 103.75-27.25 106.68-27.29 109.71-27.54ZM144.62-18.12L144.62-18.12Q138.22-17.77 131.88-17.55 125.53-17.33 119.13-17.09L119.13-17.09Q119.08-16.89 119.08-16.7 119.08-16.5 119.08-16.31L119.08-16.31Q119.08-14.65 119.84-13.77 120.6-12.89 121.72-12.52 122.84-12.16 124.21-12.11 125.58-12.06 126.75-12.06L126.75-12.06Q130.02-12.06 133.29-12.28 136.56-12.5 139.89-12.74L139.89-12.74 140.28-4.98Q137.05-4.83 133.85-4.74 130.66-4.64 127.43-4.64L127.43-4.64Q126.75-4.64 124.92-4.66 123.09-4.69 121.01-4.81 118.94-4.93 117.13-5.13 115.32-5.32 114.74-5.66L114.74-5.66Q113.22-6.54 112.37-7.91 111.52-9.28 111.05-10.89 110.59-12.5 110.42-14.18 110.25-15.87 110.2-17.43L110.2-17.43Q110.15-17.68 110.17-17.94 110.2-18.21 110.2-18.46L110.2-18.46Q110.2-21.04 110.76-23.27 111.32-25.49 112.83-27.59L112.83-27.59Q113.86-29.05 115.86-30.03 117.86-31.01 120.21-31.57 122.55-32.13 124.89-32.35 127.24-32.57 128.95-32.57L128.95-32.57Q130.46-32.57 132.66-32.3 134.86-32.03 137.03-31.4 139.2-30.76 140.96-29.76 142.72-28.76 143.35-27.29L143.35-27.29Q143.45-27 143.57-26.29 143.69-25.59 143.84-24.68 143.99-23.78 144.11-22.75 144.23-21.73 144.33-20.8 144.43-19.87 144.5-19.14 144.57-18.41 144.62-18.12ZM121.67-21.14L137.98-21.68Q137.69-23.83 136.88-25.07 136.08-26.32 134.88-26.93 133.68-27.54 132.15-27.71 130.61-27.88 128.85-27.88L128.85-27.88Q128.26-27.88 127.39-27.86 126.51-27.83 125.63-27.71 124.75-27.59 123.97-27.34 123.19-27.1 122.75-26.66L122.75-26.66Q122.4-26.37 122.18-25.85 121.97-25.34 121.82-24.76 121.67-24.17 121.6-23.61 121.53-23.05 121.53-22.66L121.53-22.66Q121.53-21.88 121.67-21.14L121.67-21.14ZM156.68-32.67L156.68-32.67Q156.68-31.69 156.26-30.83 155.85-29.98 155.14-29.35 154.43-28.71 153.55-28.34 152.68-27.98 151.8-27.98L151.8-27.98Q150.82-27.98 149.97-28.42 149.11-28.86 148.48-29.54 147.84-30.22 147.5-31.13 147.16-32.03 147.16-32.96L147.16-32.96Q147.16-33.89 147.52-34.69 147.89-35.5 148.5-36.08 149.11-36.67 149.92-37.01 150.72-37.35 151.65-37.35L151.65-37.35Q152.58-37.35 153.48-36.99 154.38-36.62 155.09-35.96 155.8-35.3 156.24-34.45 156.68-33.59 156.68-32.67ZM158.68-24.37L158.68-24.37Q158.44-21.78 158.29-19.24 158.14-16.7 158-14.16L158-14.16Q157.8-11.18 157.34-8.25 156.87-5.32 156.29-2.39L156.29-2.39 148.82-1.61Q148.82-3.17 148.84-4.69 148.87-6.2 148.87-7.76L148.87-7.76Q148.87-11.77 148.72-15.77 148.57-19.78 148.43-23.78L148.43-23.78Q151.02-23.88 153.53-24.07 156.04-24.27 158.68-24.37ZM163.71-36.52L174.6-37.55Q174.21-32.81 173.84-28.13 173.47-23.44 173.23-18.7L173.23-18.7Q172.99-14.4 172.72-10.18 172.45-5.96 172.2-1.66L172.2-1.66 164.73-1.27Q164.73-5.71 164.76-10.08 164.78-14.45 164.68-18.9L164.68-18.9Q164.59-23.34 164.29-27.71 164-32.08 163.71-36.52L163.71-36.52ZM187.39-32.67L187.39-32.67Q187.39-31.69 186.97-30.83 186.56-29.98 185.85-29.35 185.14-28.71 184.26-28.34 183.38-27.98 182.5-27.98L182.5-27.98Q181.53-27.98 180.67-28.42 179.82-28.86 179.18-29.54 178.55-30.22 178.21-31.13 177.87-32.03 177.87-32.96L177.87-32.96Q177.87-33.89 178.23-34.69 178.6-35.5 179.21-36.08 179.82-36.67 180.62-37.01 181.43-37.35 182.36-37.35L182.36-37.35Q183.29-37.35 184.19-36.99 185.09-36.62 185.8-35.96 186.51-35.3 186.95-34.45 187.39-33.59 187.39-32.67ZM189.39-24.37L189.39-24.37Q189.15-21.78 189-19.24 188.85-16.7 188.71-14.16L188.71-14.16Q188.51-11.18 188.05-8.25 187.58-5.32 187-2.39L187-2.39 179.53-1.61Q179.53-3.17 179.55-4.69 179.57-6.2 179.57-7.76L179.57-7.76Q179.57-11.77 179.43-15.77 179.28-19.78 179.14-23.78L179.14-23.78Q181.72-23.88 184.24-24.07 186.75-24.27 189.39-24.37ZM223.42-14.5L223.42-14.5Q223.42-13.18 223.42-11.84 223.42-10.5 223.32-9.18L223.32-9.18 212.43-8.5Q212.63-11.04 212.75-13.53 212.87-16.02 212.87-18.6L212.87-18.6Q212.87-18.85 212.87-19.43 212.87-20.02 212.82-20.68 212.78-21.34 212.73-21.92 212.68-22.51 212.63-22.75L212.63-22.75Q212.38-23.44 212.12-23.93 211.85-24.41 211.48-24.71 211.12-25 210.58-25.12 210.04-25.24 209.26-25.24L209.26-25.24Q208.67-25.24 207.77-25.15 206.87-25.05 205.94-24.85 205.01-24.66 204.18-24.37 203.35-24.07 203.01-23.68L203.01-23.68 202.91-9.28Q202.81-9.47 202.35-9.47 201.89-9.47 201.69-9.47L201.69-9.47Q200.23-9.47 198.66-9.35 197.1-9.23 195.64-9.03L195.64-9.03Q195-14.79 194.51-20.51 194.03-26.22 193.39-31.98L193.39-31.98Q194.37-32.03 195.34-32.06 196.32-32.08 197.3-32.08L197.3-32.08Q198.57-32.08 199.86-32.01 201.15-31.93 202.42-31.88L202.42-31.88 202.77-28.13Q204.13-30.37 206.48-31.88 208.82-33.4 211.51-33.4L211.51-33.4Q212.87-33.4 214.34-33.25 215.8-33.11 217.15-32.67 218.49-32.23 219.68-31.45 220.88-30.66 221.71-29.44L221.71-29.44Q222.1-28.86 222.37-27.71 222.64-26.56 222.83-25.12 223.03-23.68 223.15-22.07 223.27-20.46 223.32-18.99 223.37-17.53 223.4-16.33 223.42-15.14 223.42-14.5ZM260.72-17.29L260.72-17.29Q260.72-15.23 260.7-13.21 260.67-11.18 260.67-9.13L260.67-9.13Q260.62-8.06 260.65-6.93 260.67-5.81 260.58-4.69L260.58-4.69Q260.43-3.61 260.28-2.42 260.14-1.22 259.79-0.05 259.45 1.12 258.89 2.15 258.33 3.17 257.4 3.91L257.4 3.91Q257.16 4.1 256.43 4.25 255.69 4.39 254.72 4.54 253.74 4.69 252.62 4.79 251.49 4.88 250.47 4.96 249.44 5.03 248.61 5.1 247.78 5.18 247.44 5.18L247.44 5.18Q244.36 5.27 241.36 5.32 238.36 5.37 235.28 5.37L235.28 5.37 232.16 5.37Q232.06 4.54 231.96 3.66 231.86 2.78 231.86 1.9L231.86 1.9Q231.86 0.93 231.67-0.12 231.47-1.17 231.23-2.2L231.23-2.2 234.45-2.15Q234.75-2.15 236.09-2.17 237.43-2.2 239.24-2.22 241.04-2.25 243.12-2.32 245.19-2.39 246.95-2.54 248.71-2.69 249.96-2.88 251.2-3.08 251.35-3.32L251.35-3.32Q251.74-3.96 251.84-4.76 251.93-5.57 251.93-6.3L251.93-6.3Q251.93-6.69 251.91-7.1 251.88-7.52 251.84-7.91L251.84-7.91Q249.1-7.71 246.42-7.57 243.73-7.42 240.95-7.42L240.95-7.42Q240.31-7.42 239.36-7.42 238.41-7.42 237.41-7.47 236.41-7.52 235.45-7.62 234.5-7.71 233.92-7.91L233.92-7.91Q232.94-8.2 231.94-8.57 230.94-8.94 230.06-9.47 229.18-10.01 228.52-10.77 227.86-11.52 227.62-12.6L227.62-12.6Q227.47-13.13 227.45-13.77 227.42-14.4 227.42-14.94L227.42-14.94Q227.42-16.31 227.57-18.41 227.71-20.51 228.08-22.68 228.45-24.85 229.06-26.78 229.67-28.71 230.6-29.69L230.6-29.69Q231.13-30.27 232.33-30.71 233.52-31.15 235.04-31.45 236.55-31.74 238.24-31.96 239.92-32.18 241.53-32.28 243.14-32.37 244.49-32.42 245.83-32.47 246.61-32.47L246.61-32.47Q249.35-32.47 252.08-32.32L252.08-32.32 252.42-35.45 260.62-34.23Q260.67-29.98 260.7-25.78 260.72-21.58 260.72-17.29ZM252.08-18.21L252.08-18.21Q252.08-19.78 252.03-21.26 251.98-22.75 251.88-24.32L251.88-24.32Q249.74-24.8 247.59-25.1 245.44-25.39 243.19-25.39L243.19-25.39Q242.8-25.39 242.02-25.34 241.24-25.29 240.39-25.17 239.53-25.05 238.8-24.83 238.07-24.61 237.77-24.32L237.77-24.32Q237.33-23.83 237.24-23.19 237.14-22.56 237.14-21.92L237.14-21.92Q237.14-21.39 237.26-20.29 237.38-19.19 237.58-18.02 237.77-16.85 238.07-15.82 238.36-14.79 238.65-14.4L238.65-14.4Q238.94-14.01 239.38-13.82 239.82-13.62 240.34-13.55 240.85-13.48 241.36-13.45 241.87-13.43 242.27-13.43L242.27-13.43Q243.24-13.43 244.63-13.5 246.02-13.57 247.42-13.77 248.81-13.96 250.03-14.33 251.25-14.7 251.88-15.33L251.88-15.33Q251.98-15.38 252.03-15.82 252.08-16.26 252.08-16.75 252.08-17.24 252.08-17.68 252.08-18.12 252.08-18.21ZM310.08-8.64L310.08-8.64 309.25-0.05Q307.69 0.05 306.13 0.12 304.56 0.2 303 0.2L303 0.2Q302.17 0.2 300.81 0.15 299.44 0.1 297.97-0.02 296.51-0.15 295.19-0.37 293.87-0.59 293.09-0.93L293.09-0.93Q291.92-1.46 291.16-2.34 290.4-3.22 289.92-4.27 289.43-5.32 289.14-6.52 288.84-7.71 288.7-8.89L288.7-8.89Q288.55-10.01 288.48-11.3 288.4-12.6 288.38-13.96 288.35-15.33 288.35-16.63 288.35-17.92 288.35-19.04L288.35-19.04 288.35-20.51 285.33-20.51Q285.52-22.71 285.55-24.85 285.57-27 285.77-29.2L285.77-29.2 288.7-29.1 288.7-36.33Q291.48-35.79 294.24-35.77 297-35.74 299.78-35.55L299.78-35.55 299.68-28.08 303.78-27.83Q303.78-27.49 303.81-27.2 303.83-26.9 303.83-26.56L303.83-26.56Q303.83-25.2 303.61-23.9 303.39-22.61 303.05-21.29L303.05-21.29 299.49-21.29Q299.39-19.04 299.34-16.8 299.29-14.55 299.29-12.3L299.29-12.3Q299.29-11.23 299.36-10.38 299.44-9.52 299.76-8.94 300.07-8.35 300.81-8.06 301.54-7.76 302.86-7.76L302.86-7.76Q304.66-7.76 306.47-8.01 308.28-8.25 310.08-8.64ZM343.14-19.04L343.14-19.04Q343.14-17.24 342.92-15.41 342.7-13.57 342.45-11.77L342.45-11.77Q342.06-8.59 341.57-5.49 341.09-2.39 340.6 0.78L340.6 0.78Q338.2 0.83 335.91 0.98 333.62 1.12 331.27 1.32L331.27 1.32Q331.27-2.25 331.27-5.74 331.27-9.23 331.12-12.74L331.12-12.74Q331.12-13.43 331.1-14.5 331.08-15.58 330.88-16.26L330.88-16.26Q330.59-17.38 330.15-17.8 329.71-18.21 328.44-18.21L328.44-18.21Q327.56-18.21 326.39-18.02 325.22-17.82 324-17.53 322.78-17.24 321.68-16.87 320.58-16.5 319.85-16.11L319.85-16.11Q319.45-12.16 318.89-8.25 318.33-4.35 318.19-0.34L318.19-0.34 311.3-0.68Q310.76-9.47 310.28-18.19 309.79-26.9 309.35-35.69L309.35-35.69 320.09-36.38Q319.99-33.15 319.89-29.96 319.8-26.76 319.7-23.54L319.7-23.54Q320.63-24.32 321.8-24.73 322.97-25.15 324.22-25.29 325.46-25.44 326.73-25.44 328-25.44 329.17-25.44L329.17-25.44Q330.93-25.44 333.15-25.32 335.37-25.2 337.4-24.63 339.43-24.07 340.99-22.85 342.55-21.63 343.09-19.43L343.09-19.43Q343.14-19.34 343.14-19.24 343.14-19.14 343.14-19.04ZM380.83-18.12L380.83-18.12Q374.43-17.77 368.09-17.55 361.74-17.33 355.34-17.09L355.34-17.09Q355.29-16.89 355.29-16.7 355.29-16.5 355.29-16.31L355.29-16.31Q355.29-14.65 356.05-13.77 356.81-12.89 357.93-12.52 359.05-12.16 360.42-12.11 361.79-12.06 362.96-12.06L362.96-12.06Q366.23-12.06 369.5-12.28 372.77-12.5 376.09-12.74L376.09-12.74 376.48-4.98Q373.26-4.83 370.06-4.74 366.86-4.64 363.64-4.64L363.64-4.64Q362.96-4.64 361.13-4.66 359.3-4.69 357.22-4.81 355.15-4.93 353.34-5.13 351.53-5.32 350.95-5.66L350.95-5.66Q349.43-6.54 348.58-7.91 347.72-9.28 347.26-10.89 346.8-12.5 346.63-14.18 346.45-15.87 346.41-17.43L346.41-17.43Q346.36-17.68 346.38-17.94 346.41-18.21 346.41-18.46L346.41-18.46Q346.41-21.04 346.97-23.27 347.53-25.49 349.04-27.59L349.04-27.59Q350.07-29.05 352.07-30.03 354.07-31.01 356.42-31.57 358.76-32.13 361.1-32.35 363.45-32.57 365.16-32.57L365.16-32.57Q366.67-32.57 368.87-32.3 371.06-32.03 373.24-31.4 375.41-30.76 377.17-29.76 378.93-28.76 379.56-27.29L379.56-27.29Q379.66-27 379.78-26.29 379.9-25.59 380.05-24.68 380.19-23.78 380.32-22.75 380.44-21.73 380.54-20.8 380.63-19.87 380.71-19.14 380.78-18.41 380.83-18.12ZM357.88-21.14L374.19-21.68Q373.9-23.83 373.09-25.07 372.28-26.32 371.09-26.93 369.89-27.54 368.35-27.71 366.82-27.88 365.06-27.88L365.06-27.88Q364.47-27.88 363.59-27.86 362.71-27.83 361.84-27.71 360.96-27.59 360.18-27.34 359.39-27.1 358.95-26.66L358.95-26.66Q358.61-26.37 358.39-25.85 358.17-25.34 358.03-24.76 357.88-24.17 357.81-23.61 357.73-23.05 357.73-22.66L357.73-22.66Q357.73-21.88 357.88-21.14L357.88-21.14ZM442.15-16.11L442.15-16.11Q442.15-13.33 442.03-10.6 441.91-7.86 441.52-5.08L441.52-5.08Q440.74-4.49 439.96-3.98 439.17-3.47 438.34-2.88L438.34-2.88Q437.66-2.44 436.85-1.88 436.05-1.32 435.17-0.78 434.29-0.24 433.39 0.17 432.48 0.59 431.7 0.73L431.7 0.73Q430.97 0.93 429.75 0.9 428.53 0.88 427.7 0.88L427.7 0.88Q425.65 0.98 423.6 1.03 421.55 1.07 419.4 1.07L419.4 1.07Q418.42 1.07 417.15 1.1 415.88 1.12 414.86 0.88L414.86 0.88Q414.56 0.83 413.88 0.42 413.2 0 412.34-0.61 411.49-1.22 410.56-1.93 409.63-2.64 408.78-3.3 407.92-3.96 407.31-4.47 406.7-4.98 406.46-5.18L406.46-5.18Q406.22-7.76 406.09-10.33 405.97-12.89 405.97-15.48L405.97-15.48Q405.97-20.51 406.34-25.44 406.7-30.37 407.14-35.35L407.14-35.35 417.2-35.6Q416.71-32.47 416.52-28.98 416.32-25.49 416.32-22.27L416.32-22.27Q416.32-21.73 416.37-20.39 416.42-19.04 416.57-17.53 416.71-16.02 416.93-14.75 417.15-13.48 417.49-13.09L417.49-13.09Q417.64-12.94 418.25-12.82 418.86-12.7 419.72-12.6 420.57-12.5 421.55-12.45 422.52-12.4 423.4-12.38 424.28-12.35 424.97-12.33 425.65-12.3 425.94-12.3L425.94-12.3Q426.19-12.3 426.77-12.3 427.36-12.3 427.97-12.33 428.58-12.35 429.12-12.4 429.65-12.45 429.85-12.6L429.85-12.6Q430.43-12.99 430.73-14.5 431.02-16.02 431.17-17.82 431.31-19.63 431.31-21.29 431.31-22.95 431.31-23.68L431.31-23.68Q431.31-24.8 431.34-25.93 431.36-27.05 431.36-28.17L431.36-28.17Q431.36-30.47 431.31-32.69 431.26-34.91 431.17-37.21L431.17-37.21Q432.19-37.11 433.19-37.08 434.19-37.06 435.22-37.06L435.22-37.06Q436.44-37.06 437.64-37.11 438.83-37.16 440-37.4L440-37.4Q441.03-32.18 441.59-26.83 442.15-21.48 442.15-16.11ZM476.67-14.5L476.67-14.5Q476.67-13.18 476.67-11.84 476.67-10.5 476.57-9.18L476.57-9.18 465.69-8.5Q465.88-11.04 466-13.53 466.12-16.02 466.12-18.6L466.12-18.6Q466.12-18.85 466.12-19.43 466.12-20.02 466.08-20.68 466.03-21.34 465.98-21.92 465.93-22.51 465.88-22.75L465.88-22.75Q465.64-23.44 465.37-23.93 465.1-24.41 464.73-24.71 464.37-25 463.83-25.12 463.29-25.24 462.51-25.24L462.51-25.24Q461.93-25.24 461.02-25.15 460.12-25.05 459.19-24.85 458.26-24.66 457.43-24.37 456.6-24.07 456.26-23.68L456.26-23.68 456.16-9.28Q456.07-9.47 455.6-9.47 455.14-9.47 454.94-9.47L454.94-9.47Q453.48-9.47 451.92-9.35 450.35-9.23 448.89-9.03L448.89-9.03Q448.25-14.79 447.77-20.51 447.28-26.22 446.64-31.98L446.64-31.98Q447.62-32.03 448.6-32.06 449.57-32.08 450.55-32.08L450.55-32.08Q451.82-32.08 453.11-32.01 454.41-31.93 455.68-31.88L455.68-31.88 456.02-28.13Q457.38-30.37 459.73-31.88 462.07-33.4 464.76-33.4L464.76-33.4Q466.12-33.4 467.59-33.25 469.05-33.11 470.4-32.67 471.74-32.23 472.94-31.45 474.13-30.66 474.96-29.44L474.96-29.44Q475.35-28.86 475.62-27.71 475.89-26.56 476.09-25.12 476.28-23.68 476.4-22.07 476.53-20.46 476.57-18.99 476.62-17.53 476.65-16.33 476.67-15.14 476.67-14.5ZM508.99-33.89L508.99-33.89 508.7-27.54Q507.19-27.64 505.67-27.69 504.16-27.73 502.65-27.73L502.65-27.73Q502.01-27.73 500.84-27.71 499.67-27.69 498.23-27.64 496.79-27.59 495.27-27.49 493.76-27.39 492.49-27.29 491.22-27.2 490.34-27.05 489.46-26.9 489.27-26.76L489.27-26.76Q488.63-26.12 488.63-25.29L488.63-25.29Q488.63-24.76 488.92-24.41L488.92-24.41Q489.02-24.27 490-24.17 490.98-24.07 492.39-24 493.81-23.93 495.49-23.9 497.18-23.88 498.71-23.85 500.25-23.83 501.45-23.78 502.65-23.73 503.13-23.68L503.13-23.68Q504.99-23.44 506.09-22.61 507.19-21.78 507.77-20.53 508.36-19.29 508.53-17.72 508.7-16.16 508.7-14.55L508.7-14.55Q508.7-13.77 508.58-12.7 508.46-11.62 508.21-10.55 507.97-9.47 507.5-8.54 507.04-7.62 506.41-7.08L506.41-7.08Q505.67-6.49 504.04-6.1 502.4-5.71 500.52-5.47 498.64-5.22 496.88-5.13 495.13-5.03 494.2-5.03L494.2-5.03Q490.98-5.03 487.75-5.4 484.53-5.76 481.36-6.2L481.36-6.2 481.36-15.53Q484.43-14.89 487.53-14.79 490.63-14.7 493.76-14.45L493.76-14.45Q494.39-14.4 495.69-14.38 496.98-14.36 498.3-14.43 499.62-14.5 500.69-14.75 501.77-14.99 502.01-15.43L502.01-15.43Q502.11-15.58 502.11-15.77 502.11-15.97 502.11-16.11L502.11-16.11Q502.11-16.5 502.04-17.11 501.96-17.72 501.72-18.07L501.72-18.07Q501.67-18.12 501.38-18.14 501.08-18.16 501.03-18.16L501.03-18.16Q498.3-18.31 495.57-18.33 492.83-18.36 490.05-18.6L490.05-18.6Q488.92-18.7 487.78-18.82 486.63-18.95 485.51-19.19L485.51-19.19Q484.58-19.38 483.82-19.63 483.07-19.87 482.5-20.26 481.94-20.65 481.55-21.26 481.16-21.88 481.01-22.9L481.01-22.9Q480.92-23.24 480.92-23.56 480.92-23.88 480.92-24.27L480.92-24.27Q480.92-25.15 481.01-26.27 481.11-27.39 481.38-28.52 481.65-29.64 482.06-30.64 482.48-31.64 483.16-32.28L483.16-32.28Q483.6-32.71 484.73-33.01 485.85-33.3 487.31-33.52 488.78-33.74 490.44-33.89 492.1-34.03 493.64-34.11 495.17-34.18 496.42-34.2 497.67-34.23 498.3-34.23L498.3-34.23Q501.03-34.23 503.7-34.13 506.36-34.03 508.99-33.89ZM546.93-18.12L546.93-18.12Q540.53-17.77 534.19-17.55 527.84-17.33 521.44-17.09L521.44-17.09Q521.39-16.89 521.39-16.7 521.39-16.5 521.39-16.31L521.39-16.31Q521.39-14.65 522.15-13.77 522.91-12.89 524.03-12.52 525.15-12.16 526.52-12.11 527.89-12.06 529.06-12.06L529.06-12.06Q532.33-12.06 535.6-12.28 538.87-12.5 542.19-12.74L542.19-12.74 542.58-4.98Q539.36-4.83 536.16-4.74 532.97-4.64 529.74-4.64L529.74-4.64Q529.06-4.64 527.23-4.66 525.4-4.69 523.32-4.81 521.25-4.93 519.44-5.13 517.63-5.32 517.05-5.66L517.05-5.66Q515.53-6.54 514.68-7.91 513.82-9.28 513.36-10.89 512.9-12.5 512.73-14.18 512.56-15.87 512.51-17.43L512.51-17.43Q512.46-17.68 512.48-17.94 512.51-18.21 512.51-18.46L512.51-18.46Q512.51-21.04 513.07-23.27 513.63-25.49 515.14-27.59L515.14-27.59Q516.17-29.05 518.17-30.03 520.17-31.01 522.52-31.57 524.86-32.13 527.2-32.35 529.55-32.57 531.26-32.57L531.26-32.57Q532.77-32.57 534.97-32.3 537.16-32.03 539.34-31.4 541.51-30.76 543.27-29.76 545.03-28.76 545.66-27.29L545.66-27.29Q545.76-27 545.88-26.29 546-25.59 546.15-24.68 546.3-23.78 546.42-22.75 546.54-21.73 546.64-20.8 546.73-19.87 546.81-19.14 546.88-18.41 546.93-18.12ZM523.98-21.14L540.29-21.68Q540-23.83 539.19-25.07 538.39-26.32 537.19-26.93 535.99-27.54 534.45-27.71 532.92-27.88 531.16-27.88L531.16-27.88Q530.57-27.88 529.69-27.86 528.81-27.83 527.94-27.71 527.06-27.59 526.28-27.34 525.49-27.1 525.06-26.66L525.06-26.66Q524.71-26.37 524.49-25.85 524.27-25.34 524.13-24.76 523.98-24.17 523.91-23.61 523.83-23.05 523.83-22.66L523.83-22.66Q523.83-21.88 523.98-21.14L523.98-21.14ZM583.89-18.12L583.89-18.12Q577.49-17.77 571.15-17.55 564.8-17.33 558.4-17.09L558.4-17.09Q558.35-16.89 558.35-16.7 558.35-16.5 558.35-16.31L558.35-16.31Q558.35-14.65 559.11-13.77 559.87-12.89 560.99-12.52 562.11-12.16 563.48-12.11 564.85-12.06 566.02-12.06L566.02-12.06Q569.29-12.06 572.56-12.28 575.83-12.5 579.15-12.74L579.15-12.74 579.54-4.98Q576.32-4.83 573.12-4.74 569.93-4.64 566.7-4.64L566.7-4.64Q566.02-4.64 564.19-4.66 562.36-4.69 560.28-4.81 558.21-4.93 556.4-5.13 554.59-5.32 554.01-5.66L554.01-5.66Q552.49-6.54 551.64-7.91 550.79-9.28 550.32-10.89 549.86-12.5 549.69-14.18 549.52-15.87 549.47-17.43L549.47-17.43Q549.42-17.68 549.44-17.94 549.47-18.21 549.47-18.46L549.47-18.46Q549.47-21.04 550.03-23.27 550.59-25.49 552.1-27.59L552.1-27.59Q553.13-29.05 555.13-30.03 557.13-31.01 559.48-31.57 561.82-32.13 564.16-32.35 566.51-32.57 568.22-32.57L568.22-32.57Q569.73-32.57 571.93-32.3 574.12-32.03 576.3-31.4 578.47-30.76 580.23-29.76 581.99-28.76 582.62-27.29L582.62-27.29Q582.72-27 582.84-26.29 582.96-25.59 583.11-24.68 583.26-23.78 583.38-22.75 583.5-21.73 583.6-20.8 583.7-19.87 583.77-19.14 583.84-18.41 583.89-18.12ZM560.94-21.14L577.25-21.68Q576.96-23.83 576.15-25.07 575.35-26.32 574.15-26.93 572.95-27.54 571.41-27.71 569.88-27.88 568.12-27.88L568.12-27.88Q567.53-27.88 566.65-27.86 565.78-27.83 564.9-27.71 564.02-27.59 563.24-27.34 562.45-27.1 562.02-26.66L562.02-26.66Q561.67-26.37 561.45-25.85 561.23-25.34 561.09-24.76 560.94-24.17 560.87-23.61 560.79-23.05 560.79-22.66L560.79-22.66Q560.79-21.88 560.94-21.14L560.94-21.14ZM616.16-14.5L616.16-14.5Q616.16-13.18 616.16-11.84 616.16-10.5 616.07-9.18L616.07-9.18 605.18-8.5Q605.37-11.04 605.49-13.53 605.62-16.02 605.62-18.6L605.62-18.6Q605.62-18.85 605.62-19.43 605.62-20.02 605.57-20.68 605.52-21.34 605.47-21.92 605.42-22.51 605.37-22.75L605.37-22.75Q605.13-23.44 604.86-23.93 604.59-24.41 604.22-24.71 603.86-25 603.32-25.12 602.78-25.24 602-25.24L602-25.24Q601.42-25.24 600.51-25.15 599.61-25.05 598.68-24.85 597.76-24.66 596.93-24.37 596.1-24.07 595.75-23.68L595.75-23.68 595.66-9.28Q595.56-9.47 595.09-9.47 594.63-9.47 594.43-9.47L594.43-9.47Q592.97-9.47 591.41-9.35 589.85-9.23 588.38-9.03L588.38-9.03Q587.75-14.79 587.26-20.51 586.77-26.22 586.13-31.98L586.13-31.98Q587.11-32.03 588.09-32.06 589.06-32.08 590.04-32.08L590.04-32.08Q591.31-32.08 592.6-32.01 593.9-31.93 595.17-31.88L595.17-31.88 595.51-28.13Q596.88-30.37 599.22-31.88 601.56-33.4 604.25-33.4L604.25-33.4Q605.62-33.4 607.08-33.25 608.55-33.11 609.89-32.67 611.23-32.23 612.43-31.45 613.62-30.66 614.45-29.44L614.45-29.44Q614.85-28.86 615.11-27.71 615.38-26.56 615.58-25.12 615.77-23.68 615.89-22.07 616.02-20.46 616.07-18.99 616.11-17.53 616.14-16.33 616.16-15.14 616.16-14.5ZM629.1-15.72L629.1-15.72Q629.1-15.48 629.1-15.09 629.1-14.7 629.05-14.28 629-13.87 628.91-13.53 628.81-13.18 628.66-13.04L628.66-13.04Q628.47-12.89 627.88-12.77 627.29-12.65 626.61-12.6 625.93-12.55 625.32-12.52 624.71-12.5 624.41-12.5L624.41-12.5Q624.12-12.5 623.7-12.5 623.29-12.5 622.85-12.55 622.41-12.6 622.04-12.72 621.68-12.84 621.53-13.04L621.53-13.04Q621.34-13.28 621.21-13.79 621.09-14.31 621.02-14.87 620.95-15.43 620.92-15.99 620.9-16.55 620.9-16.85L620.9-16.85Q620.9-17.14 620.92-17.53 620.95-17.92 620.99-18.31 621.04-18.7 621.17-19.04 621.29-19.38 621.53-19.58L621.53-19.58Q621.68-19.73 622.24-19.85 622.8-19.97 623.46-20.02 624.12-20.07 624.75-20.09 625.39-20.12 625.63-20.12L625.63-20.12Q626.17-20.12 627.17-20.04 628.17-19.97 628.56-19.58L628.56-19.58Q628.71-19.38 628.83-18.87 628.95-18.36 629-17.75 629.05-17.14 629.08-16.58 629.1-16.02 629.1-15.72ZM629.15-2.15L629.15-2.15Q629.15-1.9 629.15-1.54 629.15-1.17 629.1-0.76 629.05-0.34 628.95 0 628.86 0.34 628.71 0.49L628.71 0.49Q628.51 0.63 627.93 0.76 627.34 0.88 626.66 0.95 625.98 1.03 625.37 1.05 624.75 1.07 624.46 1.07L624.46 1.07Q624.22 1.07 623.8 1.07 623.39 1.07 622.95 1 622.51 0.93 622.12 0.83 621.73 0.73 621.58 0.49L621.58 0.49Q621.43 0.29 621.31-0.22 621.19-0.73 621.12-1.32 621.04-1.9 620.99-2.47 620.95-3.03 620.95-3.32L620.95-3.32Q620.95-3.61 620.97-4 620.99-4.39 621.04-4.79 621.09-5.18 621.21-5.52 621.34-5.86 621.58-6.05L621.58-6.05Q621.73-6.2 622.29-6.3 622.85-6.4 623.53-6.45 624.22-6.49 624.85-6.52 625.49-6.54 625.73-6.54L625.73-6.54Q626.27-6.54 627.24-6.49 628.22-6.45 628.61-6.05L628.61-6.05Q628.76-5.86 628.88-5.35 629-4.83 629.05-4.22 629.1-3.61 629.12-3.03 629.15-2.44 629.15-2.15ZM682.71-28.42L682.71-28.42 682.71-25 673.28-24.51Q673.09-21.68 672.99-18.9 672.89-16.11 672.89-13.33L672.89-13.33Q672.89-9.91 672.72-6.52 672.55-3.13 672.31 0.24L672.31 0.24Q670.55 0.34 668.79 0.42 667.03 0.49 665.28 0.49L665.28 0.49Q664.64 0.49 664.03 0.46 663.42 0.44 662.84 0.44L662.84 0.44Q662.93-2.54 663.01-5.49 663.08-8.45 663.08-11.38L663.08-11.38Q663.08-14.31 662.93-17.26 662.79-20.21 662.59-23.19L662.59-23.19Q661.18-23.14 659.74-23.1 658.29-23.05 656.83-23.05L656.83-23.05Q656-23.05 655.19-23.05 654.39-23.05 653.56-23.1L653.56-23.1Q653.41-26.71 653.36-30.27 653.31-33.84 653.27-37.4L653.27-37.4Q660.59-37.26 667.82-36.99 675.04-36.72 682.32-36.52L682.32-36.52Q682.51-34.42 682.61-32.45 682.71-30.47 682.71-28.42ZM720.4-18.12L720.4-18.12Q714-17.77 707.66-17.55 701.31-17.33 694.91-17.09L694.91-17.09Q694.86-16.89 694.86-16.7 694.86-16.5 694.86-16.31L694.86-16.31Q694.86-14.65 695.62-13.77 696.38-12.89 697.5-12.52 698.62-12.16 699.99-12.11 701.36-12.06 702.53-12.06L702.53-12.06Q705.8-12.06 709.07-12.28 712.34-12.5 715.67-12.74L715.67-12.74 716.06-4.98Q712.83-4.83 709.63-4.74 706.44-4.64 703.21-4.64L703.21-4.64Q702.53-4.64 700.7-4.66 698.87-4.69 696.79-4.81 694.72-4.93 692.91-5.13 691.1-5.32 690.52-5.66L690.52-5.66Q689-6.54 688.15-7.91 687.3-9.28 686.83-10.89 686.37-12.5 686.2-14.18 686.03-15.87 685.98-17.43L685.98-17.43Q685.93-17.68 685.95-17.94 685.98-18.21 685.98-18.46L685.98-18.46Q685.98-21.04 686.54-23.27 687.1-25.49 688.61-27.59L688.61-27.59Q689.64-29.05 691.64-30.03 693.64-31.01 695.99-31.57 698.33-32.13 700.67-32.35 703.02-32.57 704.73-32.57L704.73-32.57Q706.24-32.57 708.44-32.3 710.64-32.03 712.81-31.4 714.98-30.76 716.74-29.76 718.5-28.76 719.13-27.29L719.13-27.29Q719.23-27 719.35-26.29 719.47-25.59 719.62-24.68 719.77-23.78 719.89-22.75 720.01-21.73 720.11-20.8 720.21-19.87 720.28-19.14 720.35-18.41 720.4-18.12ZM697.45-21.14L713.76-21.68Q713.47-23.83 712.66-25.07 711.86-26.32 710.66-26.93 709.46-27.54 707.93-27.71 706.39-27.88 704.63-27.88L704.63-27.88Q704.04-27.88 703.17-27.86 702.29-27.83 701.41-27.71 700.53-27.59 699.75-27.34 698.97-27.1 698.53-26.66L698.53-26.66Q698.18-26.37 697.96-25.85 697.75-25.34 697.6-24.76 697.45-24.17 697.38-23.61 697.31-23.05 697.31-22.66L697.31-22.66Q697.31-21.88 697.45-21.14L697.45-21.14ZM755.65-25.73L755.65-25.73Q755.65-23.49 755.07-21.39L755.07-21.39Q754.73-21.34 753.04-21.26 751.36-21.19 749.04-21.07 746.72-20.95 744.06-20.78 741.4-20.61 739.12-20.41 736.85-20.21 735.27-20 733.68-19.78 733.48-19.58L733.48-19.58Q732.7-18.9 732.31-17.92 731.92-16.94 731.92-15.97L731.92-15.97Q731.92-15.38 732.04-15.06 732.17-14.75 732.46-14.36L732.46-14.36Q732.61-14.21 733.48-14.11 734.36-14.01 735.44-13.96 736.51-13.92 737.44-13.89 738.37-13.87 738.51-13.87L738.51-13.87Q742.03-13.87 745.55-14.01 749.06-14.16 752.58-14.4L752.58-14.4 752.97-6.01Q748.08-5.62 743.18-5.25 738.27-4.88 733.34-4.88L733.34-4.88Q733.09-4.88 732.63-4.88 732.17-4.88 731.63-4.91 731.09-4.93 730.6-4.98 730.12-5.03 729.92-5.08L729.92-5.08Q728.9-5.37 727.89-5.74 726.89-6.1 726.01-6.67 725.14-7.23 724.48-8.01 723.82-8.79 723.52-9.91L723.52-9.91Q723.33-10.64 723.21-11.84 723.08-13.04 723.04-14.31 722.99-15.58 722.96-16.8 722.94-18.02 722.94-18.85L722.94-18.85Q722.94-20.75 722.99-22.41 723.04-24.07 723.52-25.46 724.01-26.86 725.11-27.95 726.21-29.05 728.26-29.88L728.26-29.88Q729.19-30.27 731.04-30.49 732.9-30.71 734.93-30.83 736.95-30.96 738.81-31.01 740.66-31.05 741.69-31.05L741.69-31.05Q745.11-31.05 748.5-30.91 751.89-30.76 755.31-30.52L755.31-30.52Q755.46-29.3 755.56-28.1 755.65-26.9 755.65-25.73ZM792.22-19.04L792.22-19.04Q792.22-17.24 792-15.41 791.78-13.57 791.54-11.77L791.54-11.77Q791.15-8.59 790.66-5.49 790.17-2.39 789.68 0.78L789.68 0.78Q787.29 0.83 785 0.98 782.7 1.12 780.36 1.32L780.36 1.32Q780.36-2.25 780.36-5.74 780.36-9.23 780.21-12.74L780.21-12.74Q780.21-13.43 780.19-14.5 780.16-15.58 779.97-16.26L779.97-16.26Q779.67-17.38 779.23-17.8 778.79-18.21 777.53-18.21L777.53-18.21Q776.65-18.21 775.47-18.02 774.3-17.82 773.08-17.53 771.86-17.24 770.76-16.87 769.66-16.5 768.93-16.11L768.93-16.11Q768.54-12.16 767.98-8.25 767.42-4.35 767.27-0.34L767.27-0.34 760.39-0.68Q759.85-9.47 759.36-18.19 758.87-26.9 758.43-35.69L758.43-35.69 769.18-36.38Q769.08-33.15 768.98-29.96 768.88-26.76 768.79-23.54L768.79-23.54Q769.71-24.32 770.88-24.73 772.06-25.15 773.3-25.29 774.55-25.44 775.82-25.44 777.09-25.44 778.26-25.44L778.26-25.44Q780.02-25.44 782.24-25.32 784.46-25.2 786.49-24.63 788.51-24.07 790.07-22.85 791.64-21.63 792.17-19.43L792.17-19.43Q792.22-19.34 792.22-19.24 792.22-19.14 792.22-19.04ZM806.33-0.1L806.33-0.1Q806.33 1.61 805.67 3.17 805.01 4.74 804.18 6.2L804.18 6.2 798.81 6.2Q799.84 5.03 800.81 3.76 801.79 2.49 801.79 0.78L801.79 0.78 801.79 0.24 797.15 0.15Q796.86-0.54 796.54-1.68 796.22-2.83 796.22-3.56L796.22-3.56Q796.22-4.54 796.71-5.57 797.2-6.59 797.88-7.37L797.88-7.37 805.21-6.74Q806.33-3.47 806.33-0.1ZM858.47-36.23L859.01-29.74Q854.23-29.49 849.51-29.22 844.8-28.96 840.02-28.56L840.02-28.56 839.92-24.71 852.52-25.44Q852.76-23.78 852.88-22.17 853.01-20.56 853.01-18.9L853.01-18.9Q853.01-18.21 852.98-17.48 852.96-16.75 852.96-16.06L852.96-16.06 841.24-13.96 841.97-7.91Q845.68-8.15 849.37-8.62 853.05-9.08 856.81-9.42L856.81-9.42Q857.16-6.98 857.5-4.52 857.84-2.05 858.47 0.29L858.47 0.29Q851.54 0.24 844.71 0.32 837.87 0.39 830.94 0.39L830.94 0.39Q831.08-5.32 831.28-10.99 831.47-16.65 831.47-22.41L831.47-22.41 831.47-23.34Q831.47-26.66 831.38-29.96 831.28-33.25 831.18-36.62L831.18-36.62Q835.04-36.57 838.87-36.6 842.7-36.62 846.61-36.62L846.61-36.62Q849.59-36.62 852.54-36.5 855.5-36.38 858.47-36.23L858.47-36.23ZM889.58-33.89L889.58-33.89 889.28-27.54Q887.77-27.64 886.26-27.69 884.74-27.73 883.23-27.73L883.23-27.73Q882.59-27.73 881.42-27.71 880.25-27.69 878.81-27.64 877.37-27.59 875.86-27.49 874.34-27.39 873.07-27.29 871.8-27.2 870.92-27.05 870.04-26.9 869.85-26.76L869.85-26.76Q869.21-26.12 869.21-25.29L869.21-25.29Q869.21-24.76 869.51-24.41L869.51-24.41Q869.61-24.27 870.58-24.17 871.56-24.07 872.97-24 874.39-23.93 876.07-23.9 877.76-23.88 879.3-23.85 880.84-23.83 882.03-23.78 883.23-23.73 883.72-23.68L883.72-23.68Q885.57-23.44 886.67-22.61 887.77-21.78 888.36-20.53 888.94-19.29 889.11-17.72 889.28-16.16 889.28-14.55L889.28-14.55Q889.28-13.77 889.16-12.7 889.04-11.62 888.79-10.55 888.55-9.47 888.09-8.54 887.62-7.62 886.99-7.08L886.99-7.08Q886.26-6.49 884.62-6.1 882.98-5.71 881.1-5.47 879.22-5.22 877.47-5.13 875.71-5.03 874.78-5.03L874.78-5.03Q871.56-5.03 868.34-5.4 865.11-5.76 861.94-6.2L861.94-6.2 861.94-15.53Q865.02-14.89 868.12-14.79 871.22-14.7 874.34-14.45L874.34-14.45Q874.98-14.4 876.27-14.38 877.56-14.36 878.88-14.43 880.2-14.5 881.28-14.75 882.35-14.99 882.59-15.43L882.59-15.43Q882.69-15.58 882.69-15.77 882.69-15.97 882.69-16.11L882.69-16.11Q882.69-16.5 882.62-17.11 882.54-17.72 882.3-18.07L882.3-18.07Q882.25-18.12 881.96-18.14 881.67-18.16 881.62-18.16L881.62-18.16Q878.88-18.31 876.15-18.33 873.41-18.36 870.63-18.6L870.63-18.6Q869.51-18.7 868.36-18.82 867.21-18.95 866.09-19.19L866.09-19.19Q865.16-19.38 864.41-19.63 863.65-19.87 863.09-20.26 862.53-20.65 862.13-21.26 861.74-21.88 861.6-22.9L861.6-22.9Q861.5-23.24 861.5-23.56 861.5-23.88 861.5-24.27L861.5-24.27Q861.5-25.15 861.6-26.27 861.7-27.39 861.96-28.52 862.23-29.64 862.65-30.64 863.06-31.64 863.75-32.28L863.75-32.28Q864.19-32.71 865.31-33.01 866.43-33.3 867.9-33.52 869.36-33.74 871.02-33.89 872.68-34.03 874.22-34.11 875.76-34.18 877-34.2 878.25-34.23 878.88-34.23L878.88-34.23Q881.62-34.23 884.28-34.13 886.94-34.03 889.58-33.89ZM928.88-16.65L928.88-16.65Q928.88-15.97 928.86-15.16 928.83-14.36 928.71-13.53 928.59-12.7 928.37-11.94 928.15-11.18 927.76-10.6L927.76-10.6Q926.93-9.38 926.19-8.52 925.46-7.67 924.61-7.1 923.75-6.54 922.68-6.2 921.6-5.86 920.14-5.66L920.14-5.66Q917.94-5.32 915.79-5.05 913.65-4.79 911.45-4.79L911.45-4.79Q910.47-4.79 909.45-4.88 908.42-4.98 907.54-5.52L907.54-5.52Q907.05-5.76 906.49-6.18 905.93-6.59 905.39-7.06 904.86-7.52 904.34-7.98 903.83-8.45 903.44-8.79L903.44-8.79 903.15 3.47Q901.78 3.56 900.41 3.54 899.05 3.52 897.63 3.52L897.63 3.52Q896.8 3.52 896.04 3.54 895.29 3.56 894.46 3.61L894.46 3.61Q894.65-0.59 894.82-4.76 894.99-8.94 894.99-13.09L894.99-13.09 894.99-13.67Q894.99-18.31 894.75-22.9 894.51-27.49 894.31-32.13L894.31-32.13Q896.75-32.32 899.14-32.47 901.54-32.62 903.98-32.81L903.98-32.81 904.32-30.22Q907.69-30.62 911.08-30.88 914.48-31.15 917.89-31.15L917.89-31.15Q918.33-31.15 918.85-31.18 919.36-31.2 919.8-31.1L919.8-31.1Q920.97-30.86 922.19-30.49 923.41-30.13 924.49-29.54 925.56-28.96 926.39-28.05 927.22-27.15 927.66-25.88L927.66-25.88Q927.95-24.9 928.2-23.73 928.44-22.56 928.59-21.31 928.73-20.07 928.81-18.87 928.88-17.68 928.88-16.65ZM919.26-17.53L919.26-17.53Q919.26-18.12 919.16-18.8 919.07-19.48 918.67-19.92L918.67-19.92Q917.7-21.04 916.23-21.66 914.77-22.27 913.35-22.27L913.35-22.27Q912.18-22.27 910.81-22.05 909.45-21.83 908.08-21.46 906.71-21.09 905.39-20.63 904.08-20.17 903-19.73L903-19.73 903.44-13.18Q905.25-12.65 907.32-12.21 909.4-11.77 911.25-11.77L911.25-11.77Q911.74-11.77 912.77-11.74 913.79-11.72 914.89-11.79 915.99-11.87 916.94-12.01 917.89-12.16 918.19-12.55L918.19-12.55Q918.43-12.84 918.63-13.5 918.82-14.16 918.97-14.92 919.11-15.67 919.19-16.38 919.26-17.09 919.26-17.53ZM969.4-19.34L969.4-19.34Q969.4-18.95 969.4-18.58 969.4-18.21 969.36-17.82L969.36-17.82Q969.31-17.14 969.11-15.58 968.92-14.01 968.57-12.33 968.23-10.64 967.74-9.23 967.26-7.81 966.67-7.42L966.67-7.42Q966.38-7.23 964.69-7.08 963.01-6.93 960.59-6.79 958.17-6.64 955.34-6.54 952.51-6.45 949.95-6.37 947.38-6.3 945.45-6.25 943.53-6.2 942.89-6.2L942.89-6.2Q942.6-6.2 941.89-6.2 941.18-6.2 940.4-6.23 939.62-6.25 938.94-6.3 938.25-6.35 937.96-6.45L937.96-6.45Q937.28-6.69 936.59-7.25 935.91-7.81 935.32-8.52 934.74-9.23 934.27-9.99 933.81-10.74 933.61-11.43L933.61-11.43Q933.47-11.96 933.37-13.06 933.27-14.16 933.22-15.36 933.17-16.55 933.15-17.68 933.13-18.8 933.13-19.38L933.13-19.38Q933.13-20.31 933.17-21.95 933.22-23.58 933.47-25.29 933.71-27 934.18-28.49 934.64-29.98 935.52-30.57L935.52-30.57Q935.91-30.81 936.98-31.01 938.06-31.2 939.52-31.35 940.99-31.49 942.65-31.57 944.31-31.64 945.89-31.67 947.48-31.69 948.85-31.69 950.22-31.69 951.05-31.64L951.05-31.64Q951.78-31.59 953.15-31.57 954.51-31.54 956.2-31.49 957.88-31.45 959.69-31.32 961.49-31.2 963.06-31.01 964.62-30.81 965.82-30.49 967.01-30.18 967.4-29.74L967.4-29.74Q968.04-29.05 968.43-27.69 968.82-26.32 969.04-24.78 969.26-23.24 969.33-21.75 969.4-20.26 969.4-19.34ZM959.05-18.31L959.05-18.31Q959.05-18.9 959-19.68 958.96-20.46 958.86-21.26 958.76-22.07 958.57-22.83 958.37-23.58 958.08-24.07L958.08-24.07Q957.69-24.71 956.56-25.05 955.44-25.39 954.1-25.56 952.75-25.73 951.46-25.78 950.17-25.83 949.53-25.83L949.53-25.83Q949.19-25.83 948.31-25.81 947.43-25.78 946.48-25.73 945.53-25.68 944.7-25.56 943.87-25.44 943.62-25.29L943.62-25.29Q943.18-25 942.94-24.39 942.7-23.78 942.57-23.05 942.45-22.31 942.43-21.61 942.4-20.9 942.4-20.46L942.4-20.46Q942.4-20.02 942.48-18.87 942.55-17.72 942.67-16.43 942.79-15.14 942.99-14.06 943.18-12.99 943.48-12.7L943.48-12.7Q943.82-12.3 944.77-12.06 945.72-11.82 946.82-11.65 947.92-11.47 948.95-11.4 949.97-11.33 950.41-11.33L950.41-11.33Q951.19-11.33 952.27-11.38 953.34-11.43 954.44-11.62 955.54-11.82 956.51-12.16 957.49-12.5 958.08-13.09L958.08-13.09Q958.42-13.43 958.61-14.11 958.81-14.79 958.91-15.58 959-16.36 959.03-17.11 959.05-17.87 959.05-18.31ZM1002.7-20.61L1002.7-20.61 1002.7-19.48 993.28-19.04Q993.43-19.68 993.43-20.51L993.43-20.51Q993.43-21.73 993.08-22.09 992.74-22.46 991.57-22.46L991.57-22.46Q989.91-22.46 987.91-21.88 985.91-21.29 984.39-20.75L984.39-20.75Q984.15-18.6 984-16.46 983.86-14.31 983.86-12.16L983.86-12.16Q983.86-9.77 983.88-7.4 983.9-5.03 983.95-2.64L983.95-2.64 975.55-2.1Q975.31-5.22 975.07-8.33 974.82-11.43 974.63-14.55L974.63-14.55Q974.38-18.7 973.99-22.83 973.6-26.95 973.21-31.15L973.21-31.15Q975.99-30.96 978.75-30.59 981.51-30.22 984.29-29.69L984.29-29.69 984.05-25.59Q985.52-26.76 986.86-27.61 988.2-28.47 989.59-29.05 990.98-29.64 992.55-29.91 994.11-30.18 996.01-30.18L996.01-30.18Q997.28-30.18 998.65-29.91 1000.02-29.64 1000.99-28.66L1000.99-28.66Q1001.48-28.13 1001.82-27.05 1002.17-25.98 1002.36-24.78 1002.56-23.58 1002.63-22.44 1002.7-21.29 1002.7-20.61ZM1029.21-8.64L1029.21-8.64 1028.38-0.05Q1026.82 0.05 1025.26 0.12 1023.7 0.2 1022.13 0.2L1022.13 0.2Q1021.3 0.2 1019.94 0.15 1018.57 0.1 1017.1-0.02 1015.64-0.15 1014.32-0.37 1013-0.59 1012.22-0.93L1012.22-0.93Q1011.05-1.46 1010.29-2.34 1009.54-3.22 1009.05-4.27 1008.56-5.32 1008.27-6.52 1007.97-7.71 1007.83-8.89L1007.83-8.89Q1007.68-10.01 1007.61-11.3 1007.53-12.6 1007.51-13.96 1007.49-15.33 1007.49-16.63 1007.49-17.92 1007.49-19.04L1007.49-19.04 1007.49-20.51 1004.46-20.51Q1004.65-22.71 1004.68-24.85 1004.7-27 1004.9-29.2L1004.9-29.2 1007.83-29.1 1007.83-36.33Q1010.61-35.79 1013.37-35.77 1016.13-35.74 1018.91-35.55L1018.91-35.55 1018.81-28.08 1022.92-27.83Q1022.92-27.49 1022.94-27.2 1022.96-26.9 1022.96-26.56L1022.96-26.56Q1022.96-25.2 1022.74-23.9 1022.52-22.61 1022.18-21.29L1022.18-21.29 1018.62-21.29Q1018.52-19.04 1018.47-16.8 1018.42-14.55 1018.42-12.3L1018.42-12.3Q1018.42-11.23 1018.5-10.38 1018.57-9.52 1018.89-8.94 1019.2-8.35 1019.94-8.06 1020.67-7.76 1021.99-7.76L1021.99-7.76Q1023.79-7.76 1025.6-8.01 1027.41-8.25 1029.21-8.64ZM1056.56-33.89L1056.56-33.89 1056.26-27.54Q1054.75-27.64 1053.24-27.69 1051.72-27.73 1050.21-27.73L1050.21-27.73Q1049.57-27.73 1048.4-27.71 1047.23-27.69 1045.79-27.64 1044.35-27.59 1042.83-27.49 1041.32-27.39 1040.05-27.29 1038.78-27.2 1037.9-27.05 1037.02-26.9 1036.83-26.76L1036.83-26.76Q1036.19-26.12 1036.19-25.29L1036.19-25.29Q1036.19-24.76 1036.49-24.41L1036.49-24.41Q1036.58-24.27 1037.56-24.17 1038.54-24.07 1039.95-24 1041.37-23.93 1043.05-23.9 1044.74-23.88 1046.28-23.85 1047.82-23.83 1049.01-23.78 1050.21-23.73 1050.7-23.68L1050.7-23.68Q1052.55-23.44 1053.65-22.61 1054.75-21.78 1055.33-20.53 1055.92-19.29 1056.09-17.72 1056.26-16.16 1056.26-14.55L1056.26-14.55Q1056.26-13.77 1056.14-12.7 1056.02-11.62 1055.77-10.55 1055.53-9.47 1055.07-8.54 1054.6-7.62 1053.97-7.08L1053.97-7.08Q1053.24-6.49 1051.6-6.1 1049.96-5.71 1048.08-5.47 1046.2-5.22 1044.45-5.13 1042.69-5.03 1041.76-5.03L1041.76-5.03Q1038.54-5.03 1035.32-5.4 1032.09-5.76 1028.92-6.2L1028.92-6.2 1028.92-15.53Q1032-14.89 1035.1-14.79 1038.2-14.7 1041.32-14.45L1041.32-14.45Q1041.96-14.4 1043.25-14.38 1044.54-14.36 1045.86-14.43 1047.18-14.5 1048.25-14.75 1049.33-14.99 1049.57-15.43L1049.57-15.43Q1049.67-15.58 1049.67-15.77 1049.67-15.97 1049.67-16.11L1049.67-16.11Q1049.67-16.5 1049.6-17.11 1049.52-17.72 1049.28-18.07L1049.28-18.07Q1049.23-18.12 1048.94-18.14 1048.65-18.16 1048.6-18.16L1048.6-18.16Q1045.86-18.31 1043.13-18.33 1040.39-18.36 1037.61-18.6L1037.61-18.6Q1036.49-18.7 1035.34-18.82 1034.19-18.95 1033.07-19.19L1033.07-19.19Q1032.14-19.38 1031.38-19.63 1030.63-19.87 1030.07-20.26 1029.5-20.65 1029.11-21.26 1028.72-21.88 1028.58-22.9L1028.58-22.9Q1028.48-23.24 1028.48-23.56 1028.48-23.88 1028.48-24.27L1028.48-24.27Q1028.48-25.15 1028.58-26.27 1028.67-27.39 1028.94-28.52 1029.21-29.64 1029.63-30.64 1030.04-31.64 1030.73-32.28L1030.73-32.28Q1031.16-32.71 1032.29-33.01 1033.41-33.3 1034.88-33.52 1036.34-33.74 1038-33.89 1039.66-34.03 1041.2-34.11 1042.74-34.18 1043.98-34.2 1045.23-34.23 1045.86-34.23L1045.86-34.23Q1048.6-34.23 1051.26-34.13 1053.92-34.03 1056.56-33.89ZM1070.91-0.1L1070.91-0.1Q1070.91 1.61 1070.25 3.17 1069.59 4.74 1068.76 6.2L1068.76 6.2 1063.39 6.2Q1064.41 5.03 1065.39 3.76 1066.37 2.49 1066.37 0.78L1066.37 0.78 1066.37 0.24 1061.73 0.15Q1061.44-0.54 1061.12-1.68 1060.8-2.83 1060.8-3.56L1060.8-3.56Q1060.8-4.54 1061.29-5.57 1061.78-6.59 1062.46-7.37L1062.46-7.37 1069.79-6.74Q1070.91-3.47 1070.91-0.1ZM1132.77-8.59L1132.77-8.59Q1132.77-6.25 1131.65-4.81 1130.52-3.37 1128.47-2.49L1128.47-2.49Q1126.76-1.76 1124.18-1.34 1121.59-0.93 1118.8-0.76 1116.02-0.59 1113.34-0.54 1110.65-0.49 1108.84-0.49L1108.84-0.49Q1105.77-0.49 1102.76-0.59 1099.76-0.68 1096.68-0.88L1096.68-0.88Q1096.83-5.86 1096.39-10.74L1096.39-10.74Q1100.05-10.64 1103.69-10.57 1107.33-10.5 1110.99-10.4L1110.99-10.4Q1112.41-10.35 1113.85-10.3 1115.29-10.25 1116.75-10.25L1116.75-10.25Q1117-10.25 1117.49-10.25 1117.97-10.25 1118.51-10.3 1119.05-10.35 1119.51-10.45 1119.98-10.55 1120.22-10.74L1120.22-10.74Q1120.42-10.94 1120.46-11.3 1120.51-11.67 1120.51-11.96L1120.51-11.96Q1120.51-12.5 1120.37-13.26 1120.22-14.01 1119.93-14.5L1119.93-14.5Q1119.88-14.55 1119.61-14.6 1119.34-14.65 1119-14.67 1118.66-14.7 1118.36-14.72 1118.07-14.75 1118.02-14.75L1118.02-14.75Q1114.9-14.99 1111.8-15.09 1108.7-15.19 1105.57-15.43L1105.57-15.43Q1104.16-15.58 1102.67-15.72 1101.18-15.87 1099.91-16.26L1099.91-16.26Q1098.69-16.6 1097.83-17.8 1096.98-18.99 1096.47-20.53 1095.95-22.07 1095.73-23.63 1095.51-25.2 1095.51-26.27L1095.51-26.27Q1095.51-28.03 1095.85-29.61 1096.2-31.2 1096.95-32.57 1097.71-33.94 1098.88-34.99 1100.05-36.04 1101.76-36.72L1101.76-36.72Q1104.69-37.84 1108.04-38.28 1111.38-38.72 1114.46-38.72L1114.46-38.72Q1118.07-38.72 1121.59-38.28 1125.1-37.84 1128.62-37.16L1128.62-37.16Q1128.57-35.74 1128.55-34.35 1128.52-32.96 1128.52-31.54L1128.52-31.54Q1128.52-30.13 1128.67-28.69 1128.81-27.25 1128.96-25.83L1128.96-25.83Q1124.32-25.73 1119.71-25.66 1115.09-25.59 1110.41-25.39L1110.41-25.39Q1109.82-25.39 1108.82-25.34 1107.82-25.29 1106.89-25.22 1105.96-25.15 1105.28-25.1 1104.59-25.05 1104.59-25.05L1104.59-25.05Q1104.35-24.51 1104.3-23.95 1104.25-23.39 1104.25-22.8L1104.25-22.8Q1104.25-22.51 1104.28-22.07 1104.3-21.63 1104.5-21.39L1104.5-21.39Q1104.55-21.34 1105.33-21.24 1106.11-21.14 1107.06-21.04 1108.01-20.95 1108.87-20.85 1109.72-20.75 1109.92-20.75L1109.92-20.75Q1111.53-20.61 1113.7-20.41 1115.87-20.21 1118.14-19.97 1120.42-19.73 1122.51-19.36 1124.61-18.99 1126.18-18.51L1126.18-18.51Q1127.59-18.02 1128.79-16.97 1129.99-15.92 1130.86-14.53 1131.74-13.13 1132.26-11.6 1132.77-10.06 1132.77-8.59ZM1171.34-16.65L1171.34-16.65Q1171.34-15.97 1171.32-15.16 1171.29-14.36 1171.17-13.53 1171.05-12.7 1170.83-11.94 1170.61-11.18 1170.22-10.6L1170.22-10.6Q1169.39-9.38 1168.65-8.52 1167.92-7.67 1167.07-7.1 1166.21-6.54 1165.14-6.2 1164.07-5.86 1162.6-5.66L1162.6-5.66Q1160.4-5.32 1158.25-5.05 1156.11-4.79 1153.91-4.79L1153.91-4.79Q1152.93-4.79 1151.91-4.88 1150.88-4.98 1150-5.52L1150-5.52Q1149.51-5.76 1148.95-6.18 1148.39-6.59 1147.85-7.06 1147.32-7.52 1146.8-7.98 1146.29-8.45 1145.9-8.79L1145.9-8.79 1145.61 3.47Q1144.24 3.56 1142.87 3.54 1141.51 3.52 1140.09 3.52L1140.09 3.52Q1139.26 3.52 1138.5 3.54 1137.75 3.56 1136.92 3.61L1136.92 3.61Q1137.11-0.59 1137.28-4.76 1137.45-8.94 1137.45-13.09L1137.45-13.09 1137.45-13.67Q1137.45-18.31 1137.21-22.9 1136.97-27.49 1136.77-32.13L1136.77-32.13Q1139.21-32.32 1141.6-32.47 1144-32.62 1146.44-32.81L1146.44-32.81 1146.78-30.22Q1150.15-30.62 1153.54-30.88 1156.94-31.15 1160.35-31.15L1160.35-31.15Q1160.79-31.15 1161.31-31.18 1161.82-31.2 1162.26-31.1L1162.26-31.1Q1163.43-30.86 1164.65-30.49 1165.87-30.13 1166.95-29.54 1168.02-28.96 1168.85-28.05 1169.68-27.15 1170.12-25.88L1170.12-25.88Q1170.41-24.9 1170.66-23.73 1170.9-22.56 1171.05-21.31 1171.19-20.07 1171.27-18.87 1171.34-17.68 1171.34-16.65ZM1161.72-17.53L1161.72-17.53Q1161.72-18.12 1161.62-18.8 1161.53-19.48 1161.14-19.92L1161.14-19.92Q1160.16-21.04 1158.69-21.66 1157.23-22.27 1155.81-22.27L1155.81-22.27Q1154.64-22.27 1153.27-22.05 1151.91-21.83 1150.54-21.46 1149.17-21.09 1147.85-20.63 1146.54-20.17 1145.46-19.73L1145.46-19.73 1145.9-13.18Q1147.71-12.65 1149.78-12.21 1151.86-11.77 1153.71-11.77L1153.71-11.77Q1154.2-11.77 1155.23-11.74 1156.25-11.72 1157.35-11.79 1158.45-11.87 1159.4-12.01 1160.35-12.16 1160.65-12.55L1160.65-12.55Q1160.89-12.84 1161.09-13.5 1161.28-14.16 1161.43-14.92 1161.57-15.67 1161.65-16.38 1161.72-17.09 1161.72-17.53ZM1211.87-19.34L1211.87-19.34Q1211.87-18.95 1211.87-18.58 1211.87-18.21 1211.82-17.82L1211.82-17.82Q1211.77-17.14 1211.57-15.58 1211.38-14.01 1211.04-12.33 1210.69-10.64 1210.21-9.23 1209.72-7.81 1209.13-7.42L1209.13-7.42Q1208.84-7.23 1207.15-7.08 1205.47-6.93 1203.05-6.79 1200.63-6.64 1197.8-6.54 1194.97-6.45 1192.41-6.37 1189.84-6.3 1187.92-6.25 1185.99-6.2 1185.35-6.2L1185.35-6.2Q1185.06-6.2 1184.35-6.2 1183.64-6.2 1182.86-6.23 1182.08-6.25 1181.4-6.3 1180.71-6.35 1180.42-6.45L1180.42-6.45Q1179.74-6.69 1179.05-7.25 1178.37-7.81 1177.78-8.52 1177.2-9.23 1176.73-9.99 1176.27-10.74 1176.07-11.43L1176.07-11.43Q1175.93-11.96 1175.83-13.06 1175.73-14.16 1175.68-15.36 1175.63-16.55 1175.61-17.68 1175.59-18.8 1175.59-19.38L1175.59-19.38Q1175.59-20.31 1175.63-21.95 1175.68-23.58 1175.93-25.29 1176.17-27 1176.64-28.49 1177.1-29.98 1177.98-30.57L1177.98-30.57Q1178.37-30.81 1179.44-31.01 1180.52-31.2 1181.98-31.35 1183.45-31.49 1185.11-31.57 1186.77-31.64 1188.35-31.67 1189.94-31.69 1191.31-31.69 1192.68-31.69 1193.51-31.64L1193.51-31.64Q1194.24-31.59 1195.61-31.57 1196.97-31.54 1198.66-31.49 1200.34-31.45 1202.15-31.32 1203.96-31.2 1205.52-31.01 1207.08-30.81 1208.28-30.49 1209.47-30.18 1209.86-29.74L1209.86-29.74Q1210.5-29.05 1210.89-27.69 1211.28-26.32 1211.5-24.78 1211.72-23.24 1211.79-21.75 1211.87-20.26 1211.87-19.34ZM1201.51-18.31L1201.51-18.31Q1201.51-18.9 1201.46-19.68 1201.42-20.46 1201.32-21.26 1201.22-22.07 1201.03-22.83 1200.83-23.58 1200.54-24.07L1200.54-24.07Q1200.15-24.71 1199.02-25.05 1197.9-25.39 1196.56-25.56 1195.21-25.73 1193.92-25.78 1192.63-25.83 1191.99-25.83L1191.99-25.83Q1191.65-25.83 1190.77-25.81 1189.89-25.78 1188.94-25.73 1187.99-25.68 1187.16-25.56 1186.33-25.44 1186.08-25.29L1186.08-25.29Q1185.64-25 1185.4-24.39 1185.16-23.78 1185.03-23.05 1184.91-22.31 1184.89-21.61 1184.86-20.9 1184.86-20.46L1184.86-20.46Q1184.86-20.02 1184.94-18.87 1185.01-17.72 1185.13-16.43 1185.25-15.14 1185.45-14.06 1185.64-12.99 1185.94-12.7L1185.94-12.7Q1186.28-12.3 1187.23-12.06 1188.18-11.82 1189.28-11.65 1190.38-11.47 1191.41-11.4 1192.43-11.33 1192.87-11.33L1192.87-11.33Q1193.65-11.33 1194.73-11.38 1195.8-11.43 1196.9-11.62 1198-11.82 1198.97-12.16 1199.95-12.5 1200.54-13.09L1200.54-13.09Q1200.88-13.43 1201.07-14.11 1201.27-14.79 1201.37-15.58 1201.46-16.36 1201.49-17.11 1201.51-17.87 1201.51-18.31ZM1245.16-20.61L1245.16-20.61 1245.16-19.48 1235.74-19.04Q1235.89-19.68 1235.89-20.51L1235.89-20.51Q1235.89-21.73 1235.54-22.09 1235.2-22.46 1234.03-22.46L1234.03-22.46Q1232.37-22.46 1230.37-21.88 1228.37-21.29 1226.85-20.75L1226.85-20.75Q1226.61-18.6 1226.46-16.46 1226.32-14.31 1226.32-12.16L1226.32-12.16Q1226.32-9.77 1226.34-7.4 1226.36-5.03 1226.41-2.64L1226.41-2.64 1218.02-2.1Q1217.77-5.22 1217.53-8.33 1217.28-11.43 1217.09-14.55L1217.09-14.55Q1216.84-18.7 1216.45-22.83 1216.06-26.95 1215.67-31.15L1215.67-31.15Q1218.45-30.96 1221.21-30.59 1223.97-30.22 1226.76-29.69L1226.76-29.69 1226.51-25.59Q1227.98-26.76 1229.32-27.61 1230.66-28.47 1232.05-29.05 1233.44-29.64 1235.01-29.91 1236.57-30.18 1238.47-30.18L1238.47-30.18Q1239.74-30.18 1241.11-29.91 1242.48-29.64 1243.45-28.66L1243.45-28.66Q1243.94-28.13 1244.28-27.05 1244.63-25.98 1244.82-24.78 1245.02-23.58 1245.09-22.44 1245.16-21.29 1245.16-20.61ZM1271.67-8.64L1271.67-8.64 1270.84-0.05Q1269.28 0.05 1267.72 0.12 1266.16 0.2 1264.59 0.2L1264.59 0.2Q1263.76 0.2 1262.4 0.15 1261.03 0.1 1259.57-0.02 1258.1-0.15 1256.78-0.37 1255.46-0.59 1254.68-0.93L1254.68-0.93Q1253.51-1.46 1252.75-2.34 1252-3.22 1251.51-4.27 1251.02-5.32 1250.73-6.52 1250.43-7.71 1250.29-8.89L1250.29-8.89Q1250.14-10.01 1250.07-11.3 1250-12.6 1249.97-13.96 1249.95-15.33 1249.95-16.63 1249.95-17.92 1249.95-19.04L1249.95-19.04 1249.95-20.51 1246.92-20.51Q1247.11-22.71 1247.14-24.85 1247.16-27 1247.36-29.2L1247.36-29.2 1250.29-29.1 1250.29-36.33Q1253.07-35.79 1255.83-35.77 1258.59-35.74 1261.37-35.55L1261.37-35.55 1261.27-28.08 1265.38-27.83Q1265.38-27.49 1265.4-27.2 1265.42-26.9 1265.42-26.56L1265.42-26.56Q1265.42-25.2 1265.21-23.9 1264.99-22.61 1264.64-21.29L1264.64-21.29 1261.08-21.29Q1260.98-19.04 1260.93-16.8 1260.88-14.55 1260.88-12.3L1260.88-12.3Q1260.88-11.23 1260.96-10.38 1261.03-9.52 1261.35-8.94 1261.67-8.35 1262.4-8.06 1263.13-7.76 1264.45-7.76L1264.45-7.76Q1266.25-7.76 1268.06-8.01 1269.87-8.25 1271.67-8.64ZM1299.02-33.89L1299.02-33.89 1298.72-27.54Q1297.21-27.64 1295.7-27.69 1294.18-27.73 1292.67-27.73L1292.67-27.73Q1292.03-27.73 1290.86-27.71 1289.69-27.69 1288.25-27.64 1286.81-27.59 1285.3-27.49 1283.78-27.39 1282.51-27.29 1281.24-27.2 1280.36-27.05 1279.48-26.9 1279.29-26.76L1279.29-26.76Q1278.65-26.12 1278.65-25.29L1278.65-25.29Q1278.65-24.76 1278.95-24.41L1278.95-24.41Q1279.05-24.27 1280.02-24.17 1281-24.07 1282.41-24 1283.83-23.93 1285.52-23.9 1287.2-23.88 1288.74-23.85 1290.28-23.83 1291.47-23.78 1292.67-23.73 1293.16-23.68L1293.16-23.68Q1295.01-23.44 1296.11-22.61 1297.21-21.78 1297.8-20.53 1298.38-19.29 1298.55-17.72 1298.72-16.16 1298.72-14.55L1298.72-14.55Q1298.72-13.77 1298.6-12.7 1298.48-11.62 1298.23-10.55 1297.99-9.47 1297.53-8.54 1297.06-7.62 1296.43-7.08L1296.43-7.08Q1295.7-6.49 1294.06-6.1 1292.42-5.71 1290.54-5.47 1288.66-5.22 1286.91-5.13 1285.15-5.03 1284.22-5.03L1284.22-5.03Q1281-5.03 1277.78-5.4 1274.55-5.76 1271.38-6.2L1271.38-6.2 1271.38-15.53Q1274.46-14.89 1277.56-14.79 1280.66-14.7 1283.78-14.45L1283.78-14.45Q1284.42-14.4 1285.71-14.38 1287-14.36 1288.32-14.43 1289.64-14.5 1290.72-14.75 1291.79-14.99 1292.03-15.43L1292.03-15.43Q1292.13-15.58 1292.13-15.77 1292.13-15.97 1292.13-16.11L1292.13-16.11Q1292.13-16.5 1292.06-17.11 1291.98-17.72 1291.74-18.07L1291.74-18.07Q1291.69-18.12 1291.4-18.14 1291.11-18.16 1291.06-18.16L1291.06-18.16Q1288.32-18.31 1285.59-18.33 1282.85-18.36 1280.07-18.6L1280.07-18.6Q1278.95-18.7 1277.8-18.82 1276.65-18.95 1275.53-19.19L1275.53-19.19Q1274.6-19.38 1273.85-19.63 1273.09-19.87 1272.53-20.26 1271.97-20.65 1271.57-21.26 1271.18-21.88 1271.04-22.9L1271.04-22.9Q1270.94-23.24 1270.94-23.56 1270.94-23.88 1270.94-24.27L1270.94-24.27Q1270.94-25.15 1271.04-26.27 1271.14-27.39 1271.4-28.52 1271.67-29.64 1272.09-30.64 1272.5-31.64 1273.19-32.28L1273.19-32.28Q1273.63-32.71 1274.75-33.01 1275.87-33.3 1277.34-33.52 1278.8-33.74 1280.46-33.89 1282.12-34.03 1283.66-34.11 1285.2-34.18 1286.44-34.2 1287.69-34.23 1288.32-34.23L1288.32-34.23Q1291.06-34.23 1293.72-34.13 1296.38-34.03 1299.02-33.89ZM1311.46-1.81L1311.46-1.81Q1311.46-1.56 1311.46-1.17 1311.46-0.78 1311.42-0.39 1311.37 0 1311.27 0.37 1311.17 0.73 1311.03 0.88L1311.03 0.88Q1310.83 1.03 1310.24 1.15 1309.66 1.27 1308.97 1.34 1308.29 1.42 1307.68 1.44 1307.07 1.46 1306.78 1.46L1306.78 1.46Q1306.48 1.46 1306.07 1.44 1305.65 1.42 1305.21 1.37 1304.78 1.32 1304.41 1.2 1304.04 1.07 1303.9 0.88L1303.9 0.88Q1303.7 0.68 1303.58 0.17 1303.46-0.34 1303.38-0.93 1303.31-1.51 1303.29-2.05 1303.26-2.59 1303.26-2.88L1303.26-2.88Q1303.26-3.47 1303.36-4.39 1303.46-5.32 1303.9-5.71L1303.9-5.71Q1304.04-5.86 1304.6-5.93 1305.17-6.01 1305.83-6.08 1306.48-6.15 1307.12-6.18 1307.75-6.2 1308-6.2L1308-6.2Q1308.54-6.2 1309.54-6.13 1310.54-6.05 1310.93-5.71L1310.93-5.71Q1311.07-5.47 1311.2-4.96 1311.32-4.44 1311.37-3.83 1311.42-3.22 1311.44-2.66 1311.46-2.1 1311.46-1.81Z" opacity="1" transform="matrix(1,0,0,1,0,0)" fill="#ffffff" class="slogan-text-1" data-fill-palette-color="quaternary" id="text-1"></path></svg></g></svg></g></svg></g></svg></g><g></g></svg></g><defs></defs></svg><rect width="395.52" height="96.52705522205102" fill="none" stroke="none" visibility="hidden"></rect></g></svg></g></svg>